<svg id="Calque_1" data-name="Calque 1" xmlns="http://www.w3.org/2000/svg" viewBox="0 0 54 25"><defs><style>.cls-1{fill:#2db4d0;}.cls-1,.cls-2{fill-rule:evenodd;}.cls-2{fill:#fff;}</style></defs><title>Plan de travail 1</title><g id="rooms"><path id="SVGID" class="cls-1" d="M1.9,1H52.3a.9.9,0,0,1,.9.9V23.2a.9.9,0,0,1-.9.9H1.9a.9.9,0,0,1-.9-.9V1.9A.9.9,0,0,1,1.9,1Z"/><path class="cls-2" d="M31.9,13.8a2,2,0,0,0,0-4c-.3,0-.5.1-.7.1-.1-.5-.1-1-.2-1.5a.32.32,0,0,0-.3-.3H22.6a.27.27,0,0,0-.3.3,11.82,11.82,0,0,0-.3,3.7,5.35,5.35,0,0,0,1.1,2.8c-1.7.1-2.8.3-2.8.5,0,.4,2.8.7,6.3.7s6.3-.3,6.3-.7c0-.2-1.1-.4-2.8-.6a5,5,0,0,0,.8-1.4A1.28,1.28,0,0,0,31.9,13.8Zm0-3.3a1.3,1.3,0,1,1,0,2.6,1.14,1.14,0,0,1-.8-.3,1.7,1.7,0,0,0,.1-.7V10.6A1.7,1.7,0,0,1,31.9,10.5Z"/></g></svg>