<svg id="Calque_1" data-name="Calque 1" xmlns="http://www.w3.org/2000/svg" xmlns:xlink="http://www.w3.org/1999/xlink" viewBox="0 0 40 25"><defs><style>.cls-1{fill:none;}.cls-2,.cls-4{fill:#bdbdbd;}.cls-2{fill-rule:evenodd;}.cls-3{clip-path:url(#clip-path);}.cls-5{clip-path:url(#clip-path-2);}</style><clipPath id="clip-path"><polygon class="cls-1" points="8.4 4.6 15.5 4.6 8.4 12.8 15.5 21.1 8.4 21.1 1.4 12.8 8.4 4.6"/></clipPath><clipPath id="clip-path-2"><polygon class="cls-1" points="18.7 4.6 25.7 4.6 18.7 12.8 25.7 21.1 18.7 21.1 11.6 12.8 18.7 4.6"/></clipPath></defs><title>Plan de travail 1</title><g id="exits"><polygon id="SVGID" class="cls-2" points="8.4 4.6 15.5 4.6 8.4 12.8 15.5 21.1 8.4 21.1 1.4 12.8 8.4 4.6"/><g class="cls-3"><rect class="cls-4" x="-0.9" y="2.3" width="18.7" height="21.1"/></g><polygon id="SVGID-2" data-name="SVGID" class="cls-2" points="18.7 4.6 25.7 4.6 18.7 12.8 25.7 21.1 18.7 21.1 11.6 12.8 18.7 4.6"/><g class="cls-5"><rect class="cls-4" x="9.3" y="2.3" width="18.7" height="21.1"/></g></g><path d="M21.87,14c.07.35.32.5.72.5s.57-.16.57-.41-.17-.4-.76-.54c-.93-.22-1.17-.56-1.17-1s.45-1,1.27-1,1.28.5,1.33,1h-.75c0-.21-.15-.44-.6-.44s-.48.12-.48.37.14.33.7.46c1,.24,1.22.61,1.22,1.1S23.45,15,22.53,15A1.25,1.25,0,0,1,21.11,14Z"/><path d="M27.69,13.26A1.65,1.65,0,0,1,26,15a1.61,1.61,0,0,1-1.65-1.77A1.65,1.65,0,0,1,26,11.49,1.61,1.61,0,0,1,27.69,13.26Zm-2.57,0c0,.68.29,1.19.9,1.19s.9-.56.9-1.17S26.65,12.1,26,12.1,25.12,12.58,25.12,13.25Z"/><path d="M29.07,13.61V15h-.73V11.54h1.52c.75,0,1.15.42,1.15,1a.84.84,0,0,1-.5.82c.17.06.43.24.43.86v.17A2.56,2.56,0,0,0,31,15h-.71a2.41,2.41,0,0,1-.07-.77v-.05c0-.38-.09-.56-.65-.56Zm0-.59h.62c.41,0,.57-.16.57-.45s-.18-.43-.55-.43h-.64Z"/><path d="M32.4,12.15h-1v-.61h2.84v.61h-1V15H32.4Z"/><path d="M35.4,11.54V15h-.75V11.54Z"/><path d="M38.59,13.51H36.94v.87h1.82l-.08.61H36.22V11.54h2.45v.61H36.94v.74h1.65Z"/></svg>