<svg id="Calque_1" data-name="Calque 1" xmlns="http://www.w3.org/2000/svg" xmlns:xlink="http://www.w3.org/1999/xlink" viewBox="0 0 41 25"><defs><style>.cls-1{fill:none;}.cls-2,.cls-4{fill:#bdbdbd;}.cls-2{fill-rule:evenodd;}.cls-3{clip-path:url(#clip-path);}.cls-5{clip-path:url(#clip-path-2);}</style><clipPath id="clip-path"><polygon class="cls-1" points="32.4 4.6 25.3 4.6 32.4 12.8 25.3 21.1 32.4 21.1 39.4 12.8 32.4 4.6"/></clipPath><clipPath id="clip-path-2"><polygon class="cls-1" points="22.1 4.6 15.1 4.6 22.1 12.8 15.1 21.1 22.1 21.1 29.2 12.8 22.1 4.6"/></clipPath></defs><title>Plan de travail 1</title><g id="exits"><polygon id="SVGID" class="cls-2" points="32.4 4.6 25.3 4.6 32.4 12.8 25.3 21.1 32.4 21.1 39.4 12.8 32.4 4.6"/><g class="cls-3"><rect class="cls-4" x="23" y="2.3" width="18.7" height="21.1"/></g><polygon id="SVGID-2" data-name="SVGID" class="cls-2" points="22.1 4.6 15.1 4.6 22.1 12.8 15.1 21.1 22.1 21.1 29.2 12.8 22.1 4.6"/><g class="cls-5"><rect class="cls-4" x="12.8" y="2.3" width="18.7" height="21.1"/></g></g><text/><path d="M1.87,13c.07.35.32.5.72.5s.57-.16.57-.41-.17-.4-.76-.54c-.94-.22-1.17-.56-1.17-1s.45-1,1.27-1,1.28.5,1.33,1H3.08c0-.21-.15-.44-.6-.44-.3,0-.48.12-.48.37s.14.33.7.46c1,.24,1.22.61,1.22,1.1S3.45,14,2.53,14A1.25,1.25,0,0,1,1.11,13Z"/><path d="M7.69,12.26A1.64,1.64,0,0,1,6,14a1.61,1.61,0,0,1-1.65-1.77A1.65,1.65,0,0,1,6,10.49,1.61,1.61,0,0,1,7.69,12.26Zm-2.57,0c0,.68.29,1.19.9,1.19s.9-.56.9-1.17S6.65,11.1,6,11.1,5.12,11.58,5.12,12.25Z"/><path d="M9.07,12.61V14H8.34V10.54H9.86c.75,0,1.15.42,1.15,1a.84.84,0,0,1-.5.82c.17.06.43.24.43.86v.17A2.56,2.56,0,0,0,11,14h-.71a2.41,2.41,0,0,1-.07-.77v-.05c0-.38-.09-.56-.65-.56Zm0-.59H9.7c.4,0,.56-.16.56-.45s-.18-.43-.55-.43H9.07Z"/><path d="M12.4,11.15H11.35v-.61h2.84v.61h-1V14H12.4Z"/><path d="M15.4,10.54V14h-.75V10.54Z"/><path d="M18.59,12.51H16.94v.87h1.82l-.08.61H16.22V10.54h2.45v.61H16.94v.74h1.65Z"/></svg>