<svg id="Calque_1" data-name="Calque 1" xmlns="http://www.w3.org/2000/svg" xmlns:xlink="http://www.w3.org/1999/xlink" viewBox="0 0 165 208"><defs><style>.cls-1,.cls-2,.cls-3{fill:none;}.cls-2{clip-path:url(#clip-path);}.cls-3{clip-path:url(#clip-path-2);}.cls-4{clip-path:url(#clip-path-3);}.cls-5{fill:#f3f3f3;}.cls-6{fill:#fff;fill-rule:evenodd;}</style><clipPath id="clip-path"><rect class="cls-1" x="-10" y="-30.8" width="184" height="1809.4"/></clipPath><clipPath id="clip-path-2"><path class="cls-2" d="M1.3,192.1C31.1,87.4,65.8,9.4,82.2,9.4c16.2,0,50.4,79.5,80.9,182.7h0a50.59,50.59,0,0,1,1.6,12.3V1523.1h0a49.51,49.51,0,0,1-1.5,12.1q-59.85,235.35-81,235.4t-81-235.4h0a49.51,49.51,0,0,1-1.5-12.1V204.4h0a56,56,0,0,1,1.6-12.3Z"/></clipPath><clipPath id="clip-path-3"><rect class="cls-3" x="-9.9" y="-30.8" width="184" height="1809.4"/></clipPath></defs><title>Plan de travail 1</title><g id="Layer_1" data-name="Layer 1"><g id="plane_bgr" data-name="plane bgr"><g class="cls-4"><rect class="cls-5" x="-2.7" y="-33.2" width="169.9" height="1806.2"/></g></g><path id="nose_mobile" data-name="nose mobile" class="cls-6" d="M7.2,187.9S26.4,96.1,82,97.6c0,0,52.9-5.2,74.5,89.3"/></g></svg>