<svg id="Calque_1" data-name="Calque 1" xmlns="http://www.w3.org/2000/svg" xmlns:xlink="http://www.w3.org/1999/xlink" viewBox="0 0 194.35 191.56"><defs><style>.cls-1,.cls-2,.cls-3{fill:none;}.cls-2{clip-path:url(#clip-path);}.cls-3{clip-path:url(#clip-path-2);}.cls-4{clip-path:url(#clip-path-3);}.cls-5{fill:#f3f3f3;}.cls-6{fill:#fff;fill-rule:evenodd;}</style><clipPath id="clip-path"><rect class="cls-1" x="-11.43" y="-36.69" width="216.73" height="1747.94"/></clipPath><clipPath id="clip-path-2"><path class="cls-2" d="M1.88,178.64C37,77.5,77.86,2.15,97.17,2.15c19.09,0,59.37,76.8,95.29,176.49h0a40.57,40.57,0,0,1,1.89,11.88V1464.43h0a39.51,39.51,0,0,1-1.77,11.69q-70.49,227.36-95.41,227.41T1.77,1476.12h0A39.51,39.51,0,0,1,0,1464.43V190.52H0a45.1,45.1,0,0,1,1.88-11.88Z"/></clipPath><clipPath id="clip-path-3"><rect class="cls-3" x="-11.31" y="-36.69" width="216.73" height="1747.94"/></clipPath></defs><title>Plan de travail 1</title><g id="Layer_1" data-name="Layer 1"><g id="plane_bgr" data-name="plane bgr"><g class="cls-4"><rect class="cls-5" x="-2.83" y="-39.01" width="200.12" height="1744.85"/></g></g><path id="nose_mobile" data-name="nose mobile" class="cls-6" d="M8.83,174.58S31.45,85.9,96.94,87.35c0,0,62.31-5,87.75,86.27"/></g></svg>