<svg id="Calque_1" data-name="Calque 1" xmlns="http://www.w3.org/2000/svg" xmlns:xlink="http://www.w3.org/1999/xlink" viewBox="0 0 498.93 174.6"><defs><style>.cls-1,.cls-4{isolation:isolate;fill:#23387d;}.cls-1{font-size:77px;font-family:MontserratAlternates-Regular, Montserrat Alternates;letter-spacing:0.03em;}.cls-2,.cls-3{font-size:66px;}.cls-2{letter-spacing:0.03em;}.cls-3{letter-spacing:0.03em;}.cls-4{font-size:65.05px;font-family:LucidaCalligraphy-Italic, Lucida Calligraphy;font-style:italic;}.cls-5{font-size:70px;letter-spacing:0.03em;}.cls-6{fill:#5458a2;}.cls-7{fill:url(#Dégradé_sans_nom_3);}.cls-8{fill:url(#Dégradé_sans_nom_3-2);}.cls-9{fill:url(#Dégradé_sans_nom_6);}.cls-10{fill:url(#Dégradé_sans_nom_3-3);}.cls-11{fill:url(#Dégradé_sans_nom_3-4);}.cls-12{fill:url(#Dégradé_sans_nom_6-2);}</style><linearGradient id="Dégradé_sans_nom_3" x1="114.35" y1="102.46" x2="181.17" y2="102.46" gradientUnits="userSpaceOnUse"><stop offset="0.17" stop-color="#4c56a1" stop-opacity="0.9"/><stop offset="0.39" stop-color="#3486c7" stop-opacity="0.8"/><stop offset="0.65" stop-color="#24a4d5" stop-opacity="0.5"/><stop offset="1" stop-color="#25b5d3" stop-opacity="0.1"/><stop offset="1" stop-color="#fff" stop-opacity="0.1"/></linearGradient><linearGradient id="Dégradé_sans_nom_3-2" x1="-1011.19" y1="341.63" x2="-917.33" y2="341.63" gradientTransform="matrix(-0.07, -0.94, -1.03, 0.07, 446.69, -879.65)" xlink:href="#Dégradé_sans_nom_3"/><linearGradient id="Dégradé_sans_nom_6" x1="-895.86" y1="218.05" x2="-810.28" y2="218.05" gradientTransform="matrix(-1, -0.02, 0.02, -1, -689.61, 251.73)" gradientUnits="userSpaceOnUse"><stop offset="0" stop-color="#fff" stop-opacity="0.1"/><stop offset="0" stop-color="#25b5d3" stop-opacity="0.1"/><stop offset="0.35" stop-color="#24a4d5" stop-opacity="0.5"/><stop offset="0.61" stop-color="#3486c7" stop-opacity="0.8"/><stop offset="0.83" stop-color="#4c56a1" stop-opacity="0.9"/></linearGradient><linearGradient id="Dégradé_sans_nom_3-3" x1="126.42" y1="101.56" x2="193.24" y2="101.56" gradientTransform="matrix(-1, 0, 0, 1, 237.06, 0)" xlink:href="#Dégradé_sans_nom_3"/><linearGradient id="Dégradé_sans_nom_3-4" x1="-1011.15" y1="329.95" x2="-917.29" y2="329.95" gradientTransform="matrix(0.07, -0.94, 1.03, 0.07, -209.62, -879.65)" xlink:href="#Dégradé_sans_nom_3"/><linearGradient id="Dégradé_sans_nom_6-2" x1="-907.94" y1="219.2" x2="-822.36" y2="219.2" gradientTransform="matrix(1, -0.02, -0.02, -1, 926.68, 251.73)" xlink:href="#Dégradé_sans_nom_6"/></defs><title>fennecc</title><text class="cls-1" transform="translate(198.66 65.45) scale(1.05 1)">F<tspan class="cls-2" x="48.28" y="0">en</tspan><tspan class="cls-3" x="136.12" y="0">n</tspan><tspan class="cls-2" x="182.59" y="0">ec</tspan></text><text class="cls-4" transform="translate(400.93 153.45) scale(1.05 1)"> </text><text class="cls-1" transform="translate(210.37 141.69) scale(1.05 1)">A<tspan class="cls-2" x="63.6" y="0">ir</tspan><tspan class="cls-5" x="111.12" y="0">l</tspan><tspan class="cls-2" x="134.5" y="0">i</tspan><tspan class="cls-3" x="153.9" y="0">n</tspan><tspan class="cls-2" x="200.37" y="0">es</tspan></text><path class="cls-6" d="M112.52,124.77A22,22,0,0,0,107,130a19,19,0,0,0-3.19,6.9,14,14,0,0,0,8.77,3,14.22,14.22,0,0,0,8.77-3,18.7,18.7,0,0,0-3.19-6.9A21.81,21.81,0,0,0,112.52,124.77Z" transform="translate(-16 2.6)"/><path class="cls-7" d="M181.17,86.52c-.06,4.18-1.49,7.13-2.9,10-1.5,3.08-4,7-11.62,13.37A115.54,115.54,0,0,1,155,118.26c-11.61,7.59-17.41,11.39-24.7,15-8.38,4.19-15.87,7-16,6.68s9.36-4.74,24.7-13.37c3.1-1.74,4.66-2.66,5.81-3.34a144.12,144.12,0,0,0,17.43-11.69,62.34,62.34,0,0,0,10.17-10c3.12-3.9,4.93-6.22,5.81-10a21.87,21.87,0,0,0-1.36-13.15,2.24,2.24,0,0,0-.1-.21C173,69.82,165.13,65.1,165.32,64.92s3.53,1.52,7.14,4.9C174.76,72,181.3,78,181.17,86.52Z" transform="translate(-16 2.6)"/><path class="cls-8" d="M209,4.15c-7.77.4-36.32,2.72-59.83,23.94-31.15,28.11-27.53,66-27,70.92a64,64,0,0,1,16.33-18.49,77.85,77.85,0,0,1,19.73-10.7c10-3.73,14.2-3.48,22.55-8a57.69,57.69,0,0,0,11.27-8,42,42,0,0,0,8.46-13.38c1.92-5,2.15-8.69,2.81-13.37A122.22,122.22,0,0,1,209,4.15Z" transform="translate(-16 2.6)"/><path class="cls-9" d="M122.28,99.26a82.57,82.57,0,0,1,20-63.8C167.46,6.85,203.07,4.23,208.87,3.9A55.4,55.4,0,0,0,188.4,16a54,54,0,0,0-8.69,10.79,64.41,64.41,0,0,0-10.38,35A42.45,42.45,0,0,1,165,73.47c-4.06,7.39-9.25,11.33-12.93,14.07A63.71,63.71,0,0,1,122.28,99.26Z" transform="translate(-16 2.6)"/><path class="cls-10" d="M43.83,85.62c.06,4.18,1.49,7.13,2.9,10,1.5,3.07,4,7,11.62,13.36A114,114,0,0,0,70,117.36c11.61,7.6,17.41,11.39,24.7,15,8.38,4.19,15.87,7,16,6.68s-9.36-4.74-24.7-13.36c-3.1-1.75-4.66-2.66-5.81-3.34a144.21,144.21,0,0,1-17.43-11.7,62.34,62.34,0,0,1-10.17-10c-3.12-3.9-4.93-6.21-5.81-10a21.89,21.89,0,0,1,1.36-13.16l.1-.21C52,68.92,59.87,64.21,59.68,64s-3.53,1.52-7.14,4.9C50.24,71.08,43.7,77.07,43.83,85.62Z" transform="translate(-16 2.6)"/><path class="cls-11" d="M16,3.25c7.77.4,36.32,2.73,59.83,23.94,31.15,28.11,27.53,66,27,70.92A64,64,0,0,0,86.46,79.62a77.85,77.85,0,0,0-19.73-10.7c-10-3.73-14.2-3.48-22.55-8a57.27,57.27,0,0,1-11.27-8,41.89,41.89,0,0,1-8.46-13.37c-1.92-5-2.15-8.7-2.81-13.38A122.41,122.41,0,0,0,16,3.25Z" transform="translate(-16 2.6)"/><path class="cls-12" d="M102.72,98.36a82.57,82.57,0,0,0-20-63.8C57.54,6,21.93,3.34,16.13,3A55.4,55.4,0,0,1,36.6,15.1a54,54,0,0,1,8.69,10.79,66.31,66.31,0,0,1,8.23,18.56,65.67,65.67,0,0,1,2.15,16.41A42.68,42.68,0,0,0,60,72.58C64.05,80,69.24,83.9,72.92,86.64A63.6,63.6,0,0,0,102.72,98.36Z" transform="translate(-16 2.6)"/></svg>