<svg xmlns="http://www.w3.org/2000/svg" viewBox="0 0 240.89 263.06"><defs><style>.cls-1{isolation:isolate;}.cls-2{mix-blend-mode:color-burn;}.cls-3{fill:#4a4a4a;}.cls-4{fill:#8c8c8c;}</style></defs><title>shapes</title><g class="cls-1"><g id="Layer_1" data-name="Layer 1"><g class="cls-2"><path class="cls-3" d="M551.79,238.9c-1.55.85-3.09,1.71-4.61,2.6a29.48,29.48,0,0,0,2.59,1.6l2,1.18v.46l-2.25-1.23a22.75,22.75,0,0,1-3.06-1.81l-.32-.25.34-.22c1-.65,1.92-1.23,2.91-1.8l2.38-1.4Z" transform="translate(-310.9 -32.98)"/><path class="cls-3" d="M521.63,191.93l-.07-6.81,0-6.82,0-3.41v-1.71a3.35,3.35,0,0,1,.37-1.86,3.75,3.75,0,0,1,1.42-1.26l1.45-.89,2.93-1.74,5.86-3.5c3.92-2.31,7.77-4.68,11.74-7l.83-.47v1l-.17,13.68c-.07,4.56-.1,9.13-.2,13.69v.24l-.2.11-23.74,13.56C521.65,196.49,521.67,194.2,521.63,191.93Zm23.47-7.46-.21.36c0-4.56,0-9.13.05-13.69l.07-13.68.82.48c-3.94,2.21-7.85,4.57-11.78,6.85l-5.88,3.45L525.23,170l-1.48.85a3,3,0,0,0-1.14.93,2.7,2.7,0,0,0-.29,1.44l0,1.7-.06,3.41-.13,6.82c-.1,4.54-.27,9.09-.31,13.63Z" transform="translate(-310.9 -32.98)"/><path class="cls-3" d="M521.81,199.86h0a24.73,24.73,0,0,1,3,1.61l2.94,1.7,5.89,3.42,5.92,3.36,2.95,1.68,1.48.84a3.89,3.89,0,0,1,1.46,1.1,2.12,2.12,0,0,1,.28.95l0,.87,0,1.7.09,3.4.15,6.8.11,6.81.06,3.4,0,1.7v.64a1.37,1.37,0,0,1,0,.28c-.05.37-.15.63-.19.87l-.13.69-.63-.3-.78-.39-.71-.42-1.42-.85L539.54,238l-5.67-3.38-11.29-6.9a2,2,0,0,1-.79-1.61c0-.58,0-1.11,0-1.67v-9.9l-.07-13.2Zm.16,14.7.16,6.6.08,3.3c.09,1.07-.18,2.33.68,2.86l11.45,6.53,5.7,3.31,2.86,1.66,1.42.83.72.41c.23.12.46.22.7.33l-.76.38c.06-.32.15-.59.18-.79V234.1l0-6.81V215.38a3.09,3.09,0,0,0-.17-1.51,3.58,3.58,0,0,0-1.22-.94l-1.46-.88-2.9-1.77-5.82-3.54-5.84-3.49-2.92-1.74a23.38,23.38,0,0,0-3-1.64h0l-.09,1.5Z" transform="translate(-310.9 -32.98)"/><path class="cls-3" d="M527.83,196.08,525,197.72l-1.39.81-1,.67c.36.24.71.48,1.09.7l1.5.81,3,1.63,6,3.25,6,3.3,3,1.65,1.49.83a3,3,0,0,0,1.32.53,1.37,1.37,0,0,0,.58-.16l.71-.4,1.49-.83,3-1.66.06,0V210l-2.5,1.43-1.48.85c-.26.15-.46.27-.78.43A2.4,2.4,0,0,1,546,213a3.92,3.92,0,0,1-1.83-.69l-1.48-.84-3-1.69-5.92-3.38-5.9-3.43-3-1.71-1.47-.86c-.49-.29-1-.65-1.42-1l-.33-.21L522,199l1.39-.84,1.41-.78,2.83-1.55,5.66-3.11,11.26-6.29-11.19,6.42Z" transform="translate(-310.9 -32.98)"/><path class="cls-3" d="M551.79,189.07l-.79-.45-3.1-1.77a6.77,6.77,0,0,0-1.6-.78,2.3,2.3,0,0,0-1.71.34,2.31,2.31,0,0,1,1.71-.36,7,7,0,0,1,1.62.76l3.12,1.74.75.41Z" transform="translate(-310.9 -32.98)"/><path class="cls-3" d="M548.42,186.14l3.08,1.79.29.17v.1l-.34-.2-3.05-1.82a8.76,8.76,0,0,1-1.49-1,2.14,2.14,0,0,1-.6-1.62,2.12,2.12,0,0,0,.62,1.61A8.24,8.24,0,0,0,548.42,186.14Z" transform="translate(-310.9 -32.98)"/><path class="cls-3" d="M551.79,161.18l-2.8-1.7c-.86-.53-1.72-1-2.6-1.51,0,.4-.08.8-.1,1.2v1.63l0,3.25,0,6.51.06,13-.21-13-.15-6.5-.08-3.26,0-1.62c0-.55.06-1.1.09-1.65l0-.37.35.17c1.05.48,2,1.06,3,1.62l2.49,1.41Z" transform="translate(-310.9 -32.98)"/><path class="cls-3" d="M551.79,210.82l-2.14,1.3-1.46.88a2.89,2.89,0,0,0-1.12.95,2.72,2.72,0,0,0-.23,1.44v5.1l0,6.81,0,6.8,0,3.4v1.7l0,.85a5.64,5.64,0,0,0,.73-.38l1.47-.86,2.8-1.65v1.23l-2.25,1.34a28.2,28.2,0,0,1-3,1.67l-.75.33,0-.81-.06-1.72,0-1.71,0-3.4.16-13.6,0-3.4,0-1.7a3.48,3.48,0,0,1,.39-1.86,3.62,3.62,0,0,1,1.44-1.23l1.47-.84,2.53-1.46Z" transform="translate(-310.9 -32.98)"/><path class="cls-3" d="M546.65,263.34l.09,3.3c0,1.09-.12,2.28.72,2.89,1.41.84,2.87,1.67,4.33,2.51v.78c-1.55-.94-3.11-1.9-4.67-2.9a2.31,2.31,0,0,1-.79-1.6c0-.59,0-1.12,0-1.68l0-3.3v-6.6l-.06-13.2.22,13.2Z" transform="translate(-310.9 -32.98)"/><path class="cls-3" d="M551.79,245.08l-2.48-1.48a27.59,27.59,0,0,0-3-1.65l-.07,1.59.05-1.6v0h0a27.79,27.79,0,0,1,3,1.62l2.45,1.43Z" transform="translate(-310.9 -32.98)"/><polygon class="cls-3" points="240.89 261.06 237.31 263.06 237.29 263.06 240.89 260.99 240.89 261.06"/><path class="cls-3" d="M551.79,274l-2.87-1.59-1.49-.83a3,3,0,0,0-1.34-.47,2.59,2.59,0,0,0-1.32.44l-1.48.83-3,1.67-5.94,3.32c-3.82,2.17-7.74,4.21-11.53,6.4l.34.29c.2.15.48.29.73.45l1.54.89,3.08,1.8,6.15,3.59,6.19,3.53L544,296h-.09l-3-1.69-6.23-3.46-6.26-3.4-3.12-1.71-1.57-.85a8.5,8.5,0,0,1-.8-.46l-.7-.56-.32-.26.35-.22c1.92-1.25,3.9-2.33,5.84-3.5l5.88-3.43,5.9-3.39,2.94-1.7,1.48-.84a3.46,3.46,0,0,1,1.88-.58,3.87,3.87,0,0,1,1.84.63l1.48.84,2.36,1.35Z" transform="translate(-310.9 -32.98)"/><path class="cls-3" d="M542.22,296,540.38,295l-6.13-3.56-6.16-3.5L525,286.16l-1.54-.88a10,10,0,0,0-1.16-.62c0,1,0,2,0,3l.08,3.39.12,5h-.9v-5l0-3.39c0-1.13,0-2.26.09-3.41l0-.38.35.12a7.73,7.73,0,0,1,1.62.84l1.51.92,3,1.84,6.06,3.68,6.08,3.63,1.91,1.14Z" transform="translate(-310.9 -32.98)"/><path class="cls-3" d="M521.88,282.4l0-.85,0-1.71,0-3.42-.07-6.83,0-6.84v-6a2.07,2.07,0,0,1,.24-1,2.12,2.12,0,0,1,.75-.74l.74-.45,1.46-.89,2.93-1.75,5.87-3.51,5.87-3.5,2.93-1.75,1.47-.88a5.92,5.92,0,0,1,.82-.45l.83-.28.74-.26v.78l-.17,13.63c-.07,4.54-.1,9.08-.21,13.62v.25l-.2.11-12,6.88L522,283.25C522,283,521.91,282.69,521.88,282.4ZM545.32,269l-.21.35c0-4.54,0-9.08,0-13.62l.08-13.63.73.53-.8.25c-.16.06-.42.24-.67.38l-1.47.86-2.95,1.73-5.89,3.46-5.9,3.46-2.94,1.73-1.48.86c-.5.3-1,.53-1.21.85a1.16,1.16,0,0,0-.14.62l0,.85,0,1.71-.07,3.42-.13,6.83-.18,6.83-.09,3.42,0,1.71,0,.85c0,.28.05.56.09.85Z" transform="translate(-310.9 -32.98)"/><path class="cls-3" d="M521.07,254.59a9.06,9.06,0,0,1-1.59-.79l-3.11-1.73-6.22-3.46-6.26-3.4-3.13-1.71a22.46,22.46,0,0,1-3.07-1.84l-.33-.26.34-.23c1-.64,1.93-1.23,2.91-1.79l2.94-1.72,5.89-3.43,5.9-3.39,2.95-1.7,1.48-.85a3.46,3.46,0,0,1,1.87-.6,3.87,3.87,0,0,1,1.84.65l1.47.84,3,1.69,5.92,3.37,11.76,6.87.37.21-.36.22-1.39.88-1.44.78-2.86,1.57-5.72,3.15-11.41,6.38A2.15,2.15,0,0,1,521.07,254.59Zm13-6.8,5.64-3.29,2.82-1.66L544,242l1.34-.91v.44l-12-6.51-6-3.3-3-1.65-1.49-.83a2.76,2.76,0,0,0-1.33-.49,2.55,2.55,0,0,0-1.31.47l-1.49.83-3,1.66-5.94,3.33c-3.94,2.24-8,4.31-11.89,6.61v-.49a22.13,22.13,0,0,0,3,1.91l3.08,1.79,6.15,3.59,6.18,3.53,3.09,1.77a9.76,9.76,0,0,0,1.58.8,2.13,2.13,0,0,0,1.7-.27Z" transform="translate(-310.9 -32.98)"/><path class="cls-3" d="M472.94,198.58h0c-.11-4.53,0-9.05,0-13.58l0-6.79,0-3.39v-1.7a3.27,3.27,0,0,1,.3-1.8,3.91,3.91,0,0,1,1.41-1.16l1.45-.88,2.89-1.78,5.8-3.53,5.82-3.49,2.91-1.74,1.46-.87c.49-.29,1-.54,1.53-.81l.69-.35.09.75a7.74,7.74,0,0,1,.12.92l0,.84,0,1.67-.05,3.35-.09,6.69c-.11,4.48-.16,8.88-.34,13.44a1.58,1.58,0,0,1-.48.85,3.57,3.57,0,0,1-.74.5l-1.45.83-2.91,1.66-5.8,3.34-11.57,6.75A3.92,3.92,0,0,1,472.94,198.58Zm12.37-7.17,5.71-3.48,2.86-1.75,1.42-.88c.5-.27.88-.57.95-1,0-4.35-.05-8.9-.07-13.34l0-6.69v-5.86a5.73,5.73,0,0,0-.11-.74l.78.4-1.47.77-1.46.86L491,161.37l-5.86,3.42-5.88,3.39-2.95,1.68-1.47.84a3.4,3.4,0,0,0-1.24.93,2.77,2.77,0,0,0-.26,1.49l0,1.7-.08,3.39-.16,6.79c0,4.53-.18,9.05-.13,13.58h0a3.89,3.89,0,0,0,.88-.27Z" transform="translate(-310.9 -32.98)"/><path class="cls-3" d="M473,199.63v0h0l11.8,6.83,5.92,3.37,3,1.69,1.48.84a3.41,3.41,0,0,1,1.4,1.18,3.59,3.59,0,0,1,.39,1.8l0,1.71.09,3.4.14,6.82.12,6.81.05,3.41,0,1.7-.09,1.74,0,.84-.74-.39-1.49-.78-1.42-.84-2.83-1.69-5.67-3.38c-3.77-2.31-7.51-4.51-11.3-6.92a2.43,2.43,0,0,1-.86-1.56,16.2,16.2,0,0,1,0-1.69l0-3.3v-6.6l-.06-13.2Zm.15,15,.15,6.6.09,3.3a11.89,11.89,0,0,0,.08,1.61,1.89,1.89,0,0,0,.72,1.24c3.71,2.19,7.62,4.35,11.43,6.53l5.71,3.31,2.86,1.66,1.42.82,1.45.73-.78.46.06-1.67v-5.12l0-6.81V215.34a2.25,2.25,0,0,0-1.41-2.51l-1.45-.89-2.91-1.77-5.82-3.55-11.71-7h0l-.09,1.78Z" transform="translate(-310.9 -32.98)"/><path class="cls-3" d="M497.38,186.1a5.3,5.3,0,0,1,1.63.73l3.13,1.74,6.26,3.48,6.28,3.42,3.15,1.71c1,.56,2.1,1.14,3.12,1.8l.37.24-.37.25c-.48.32-.94.67-1.43,1l-1.47.86L515.12,203l-5.88,3.42-5.91,3.39-2.95,1.7-1.47.84a3.64,3.64,0,0,1-1.86.64,3.79,3.79,0,0,1-1.83-.68l-1.47-.84-3-1.69-5.91-3.37-11.76-6.87-.35-.2.34-.22,1.37-.89,1.42-.78,2.83-1.55,5.66-3.11,11.28-6.31A2.53,2.53,0,0,1,497.38,186.1Zm-12.91,6.84-5.59,3.25-2.78,1.64-1.39.82-1.32.9v-.42l11.95,6.51,5.95,3.29,3,1.66,1.49.82a2.82,2.82,0,0,0,1.32.52,2.6,2.6,0,0,0,1.29-.51l1.49-.83,3-1.66,5.94-3.32,6-3.28,3-1.63,1.49-.82c.49-.28.95-.6,1.42-.9v.5c-1-.68-2-1.28-3-1.87l-3.09-1.81-6.19-3.61-6.22-3.55-3.1-1.78a5.41,5.41,0,0,0-1.62-.74,2.5,2.5,0,0,0-1.7.38Z" transform="translate(-310.9 -32.98)"/><path class="cls-3" d="M497.32,170.63l-.16-6.51-.08-3.26a32.42,32.42,0,0,1,0-3.27l0-.31.31.08.41.1a3.54,3.54,0,0,1,.44.22l.74.42,1.48.84,3,1.69,5.92,3.36,5.89,3.42,2.94,1.7,1.47.86.74.43a2.17,2.17,0,0,1,.8.77,3.86,3.86,0,0,1,.31,1.93v1.7l0,3.41,0,6.81v6.8l0,3.41v1.7a6.93,6.93,0,0,1,0,.89l-.13.84-.07.39-.35-.17c-1.1-.52-2-1.19-3.07-1.79l-3-1.84-6-3.67L502.75,188l-3-1.81c-.5-.31-1-.58-1.5-.93a1.8,1.8,0,0,1-.68-1.56Zm.9,14.57c.48.33,1,.6,1.51.9l3.06,1.78,6.11,3.55,6.15,3.51,3.07,1.74c1,.56,2,1.23,3.09,1.69l-.42.22.11-.84a7.17,7.17,0,0,0,0-.81l0-1.7-.09-3.41-.15-6.8-.12-6.81,0-3.4,0-1.71a3.57,3.57,0,0,0-.16-1.4,1.11,1.11,0,0,0-.41-.39l-.73-.43-1.46-.87-2.92-1.75-5.85-3.48-5.82-3.54-2.91-1.77-1.45-.89-.73-.44a1.62,1.62,0,0,0-.31-.18l-.41-.12.33-.23a31.63,31.63,0,0,0-.09,3.24l0,3.25v6.52l.06,13A1.82,1.82,0,0,0,498.22,185.2Z" transform="translate(-310.9 -32.98)"/><path class="cls-3" d="M509.26,206.44,521,199.27l.64-.39v.76c0,4.55,0,9.1,0,13.65l-.07,13.65v.28l-.22.15c-1.94,1.33-3.88,2.46-5.84,3.64l-5.89,3.47-5.94,3.39c-1,.56-2,1.12-3,1.65l-1.52.8-.78.39-.4.19-.48.18-.51.18v-.6c.17-9.08.39-18.13.67-27Zm-11.44,34.23-.49-.41.3-.14.37-.18.75-.39,1.48-.82,3-1.68,5.9-3.43,5.85-3.5c1.93-1.18,3.91-2.37,5.73-3.63l-.23.44.17-13.65c.07-4.55.1-9.1.2-13.65l.64.37-11.82,6.82-12,6.8C497.77,222.74,497.82,231.72,497.82,240.67Z" transform="translate(-310.9 -32.98)"/><path class="cls-3" d="M497.6,242.05h0c1,.48,2,1.07,3,1.64l2.94,1.71,5.89,3.42,5.92,3.36,3,1.68,1.48.84a3.08,3.08,0,0,1,1.38,1.2,3.93,3.93,0,0,1,.29,1.8l0,1.7.09,3.4.15,6.81.12,6.8c0,2.28.14,4.52,0,6.83l0,.9-.77-.45c-3.86-2.24-7.67-4.53-11.5-6.8l-5.72-3.47L501,271.69l-1.43-.87a9.91,9.91,0,0,1-1.44-.95,2.16,2.16,0,0,1-.69-1.68v-5l0-6.68-.06-13.36A8,8,0,0,1,497.6,242.05Zm0,14.45.15,6.68.09,3.34,0,1.66a1.63,1.63,0,0,0,.57,1.3,9.4,9.4,0,0,0,1.37.84l1.45.83,2.91,1.64,5.81,3.3c3.86,2.22,7.71,4.48,11.58,6.66l-.81.46c.07-4.5,0-9.07,0-13.59v-6.81l0-3.4V257.7a3.58,3.58,0,0,0-.18-1.54,2.55,2.55,0,0,0-1.13-1l-1.46-.88-2.9-1.77L509.33,249l-5.84-3.49-2.93-1.75c-1-.57-1.93-1.18-3-1.67h0a6.72,6.72,0,0,0-.19,1.09Z" transform="translate(-310.9 -32.98)"/><path class="cls-3" d="M503.93,294.81l-2,1.23h-1.48l.21-.12,2.94-1.7,5.9-3.4c4-2.21,7.86-4.52,11.87-6.66l-11.6,7.12Z" transform="translate(-310.9 -32.98)"/><path class="cls-3" d="M521.13,296l.13-5.06.09-3.41a24.26,24.26,0,0,0,0-3.41,25.88,25.88,0,0,1,.17,3.41l0,3.41.05,5.06Z" transform="translate(-310.9 -32.98)"/><path class="cls-3" d="M518.33,285.51l-2.87,1.58-5.74,3.15L499.34,296h0l10.34-5.93,5.65-3.3,2.83-1.66c.81-.49,1.68-.95,2.43-1.5-.84-.52-1.71-1-2.6-1.49l-3-1.62-6-3.24-5.95-3.3-3-1.65-1.48-.82a3.16,3.16,0,0,0-1.33-.55,2.55,2.55,0,0,0-1.28.5l-1.48.83-3,1.66-5.94,3.31c-3.81,2.17-7.75,4.19-11.51,6.39l.35.28a6.87,6.87,0,0,0,.72.45l1.53.89,3.05,1.78,6.11,3.55,6.14,3.5,3.07,1.75.29.17h-.08a1.71,1.71,0,0,0-.23-.13L492,294.19l-6.18-3.42-6.21-3.38-3.11-1.69-1.55-.84a7.3,7.3,0,0,1-.79-.46l-.71-.54-.31-.23.33-.24c.94-.69,1.93-1.21,2.91-1.8l2.93-1.71,5.87-3.42,5.9-3.39,3-1.69,1.47-.84a3.38,3.38,0,0,1,1.87-.64,4.12,4.12,0,0,1,1.8.7l1.48.84,2.95,1.69,5.9,3.36,5.87,3.43,2.94,1.71c1,.56,2,1.13,2.91,1.79l.3.21-.29.22A26.4,26.4,0,0,1,518.33,285.51Z" transform="translate(-310.9 -32.98)"/><path class="cls-3" d="M493.28,296l-1.65-1-6.13-3.56-6.16-3.5-3.09-1.76c-.91-.5-1.82-1.06-2.75-1.51,0,.16-.06.31-.08.45s0,.54,0,.81l0,1.7.09,3.4.11,4.93h-.9V286c0-.29,0-.53,0-.89s.13-.58.18-.84l.06-.38.35.16c1.1.53,2.06,1.19,3.08,1.79l3,1.85,6.06,3.68,6.1,3.63,1.72,1Z" transform="translate(-310.9 -32.98)"/><path class="cls-3" d="M473.1,283.16h0v0l0-13.65L473,255.85v-.16l.15-.1c3.85-2.35,7.69-4.74,11.56-7.06l5.81-3.49,2.91-1.74,1.45-.87a7.68,7.68,0,0,1,.75-.42l.4-.19.2-.1.05,0h0l.16-.05h.19c.16,0,.2.07.22.07h0l0,0,.24.16.23.14v.28c0,4.42-.09,8.76-.15,13.14s-.17,8.71-.34,13.16a2,2,0,0,1-1.05,1.44l-1.43.82-2.85,1.63-5.69,3.27-11.33,6.62Zm12.73-7.52,5.61-3.41,2.8-1.72c.87-.61,2.1-1,2.18-2,0-4.29,0-8.73-.06-13.08s.06-8.78,0-13.1l.23.42-.12-.08.05,0c-.06,0-.08,0,0,0h.14l.13,0h0l0,0-.19.09-.36.18a6.59,6.59,0,0,0-.72.41l-1.47.86-2.92,1.71-5.85,3.42c-3.89,2.29-7.83,4.5-11.75,6.75l.15-.25-.33,13.64-.21,13.65h0l1.49-.75Z" transform="translate(-310.9 -32.98)"/><path class="cls-3" d="M472.34,254.67a6.12,6.12,0,0,1-1.62-.75l-3.12-1.74-6.25-3.47-6.28-3.42-3.14-1.71a18.89,18.89,0,0,1-3.08-1.87l-.3-.24.31-.24a31.87,31.87,0,0,1,2.92-1.8l2.93-1.73,5.89-3.43,5.91-3.39,2.95-1.7,1.48-.84a3.23,3.23,0,0,1,1.87-.64,4.3,4.3,0,0,1,1.8.7l1.48.84,3,1.69,5.91,3.38,11.77,6.87.36.21-.35.23-1.39.86-1.42.78-2.85,1.56L485.39,248l-11.34,6.33A2.42,2.42,0,0,1,472.34,254.67Zm13-6.85,5.61-3.27,2.81-1.65,1.4-.82,1.34-.89v.43l-12-6.52-6-3.3-3-1.65-1.49-.83a3.48,3.48,0,0,0-1.34-.55,2.46,2.46,0,0,0-1.27.52l-1.49.83-3,1.66-5.95,3.32-6,3.29-3,1.64a33.39,33.39,0,0,0-2.93,1.69l0-.48a18.79,18.79,0,0,0,3,1.92l3.09,1.81,6.17,3.6,6.21,3.54,3.1,1.77a6.37,6.37,0,0,0,1.6.77,2.37,2.37,0,0,0,1.71-.37Z" transform="translate(-310.9 -32.98)"/><path class="cls-3" d="M448.47,170.59l-.16-6.5-.08-3.25c0-1.08-.06-2.16,0-3.26l0-.36.35.14a33.45,33.45,0,0,1,3,1.62l3,1.68,5.92,3.36,5.89,3.42,2.95,1.71,1.47.85.76.45a2.31,2.31,0,0,1,.76.79,3.82,3.82,0,0,1,.34,1.92v1.71l0,3.4,0,6.81V197c0,.57-.09,1.15-.13,1.72l0,.43-.38-.19c-1.1-.53-2.07-1.18-3.1-1.79l-3-1.85-6.08-3.7-6.1-3.64-3.05-1.83a15.8,15.8,0,0,1-1.51-.94,2,2,0,0,1-.59-1.62Zm.82,14.6a13.57,13.57,0,0,0,1.51.93l3.07,1.79,6.15,3.57L466.2,195l3.09,1.76c1,.57,2,1.21,3.1,1.68l-.41.24c0-.56.09-1.11.08-1.67L472,195.3l-.09-3.4-.15-6.81-.12-6.81,0-3.41,0-1.7a3.09,3.09,0,0,0-.19-1.4,1.36,1.36,0,0,0-.41-.42l-.7-.43-1.47-.87-2.92-1.74L460,164.82l-5.82-3.54-2.91-1.77a33.36,33.36,0,0,0-2.93-1.68l.36-.22c-.08,1.06-.09,2.14-.09,3.23v9.75l.06,13A2,2,0,0,0,449.29,185.19Z" transform="translate(-310.9 -32.98)"/><path class="cls-3" d="M472.51,203.18l0,3.4.07,6.81,0,6.81v5.1a3.59,3.59,0,0,1-.29,1.87,3.8,3.8,0,0,1-1.46,1.22l-1.45.88L466.52,231l-5.85,3.49L454.83,238l-2.93,1.74a27.19,27.19,0,0,1-3,1.68l-.71.3-.07-.76a33.34,33.34,0,0,1-.06-3.45l0-3.4.09-6.81.08-6.8,0-3.41,0-1.7a3.77,3.77,0,0,1,.33-1.87,3.63,3.63,0,0,1,1.48-1.18l1.47-.85,2.95-1.7,5.9-3.4,5.92-3.36,3-1.68a27.93,27.93,0,0,1,3-1.57A32.11,32.11,0,0,1,472.51,203.18Zm-3.09-1.69-2.9,1.78-5.79,3.58-5.82,3.53L452,212.15l-1.46.88a3,3,0,0,0-1.15.92,2.87,2.87,0,0,0-.18,1.45v1.7l0,3.4,0,6.81,0,6.81v3.4a28.66,28.66,0,0,0,.07,3.36l-.78-.46a26.59,26.59,0,0,0,2.94-1.6l2.94-1.73,5.87-3.44L466,230.2l2.93-1.72,1.48-.85a3.14,3.14,0,0,0,1.17-.88,2.85,2.85,0,0,0,.21-1.45l0-1.7.06-3.41.14-6.8.18-6.81.09-3.4a32.14,32.14,0,0,0,0-3.4A27.78,27.78,0,0,0,469.42,201.49Z" transform="translate(-310.9 -32.98)"/><path class="cls-3" d="M448.73,241.92h0l11.78,6.82,5.91,3.36,3,1.68,1.48.84a3.52,3.52,0,0,1,1.4,1.17,3.38,3.38,0,0,1,.4,1.8l0,1.7.09,3.4.15,6.8.11,6.8.05,3.4,0,1.71-.08,1.72,0,.82-.75-.36a30.46,30.46,0,0,1-2.92-1.63l-2.84-1.69-5.68-3.4-11.32-6.92a2.12,2.12,0,0,1-.83-1.6c0-.59,0-1.11,0-1.68v-9.93l-.06-13.23Zm.13,14.81.16,6.62.08,3.31c.07,1.09-.15,2.31.73,2.86l11.47,6.55,5.73,3.32,2.86,1.67a31.1,31.1,0,0,0,2.88,1.56l-.78.46.05-1.67V276.3l0-6.8V257.59a2.87,2.87,0,0,0-.26-1.49,2.9,2.9,0,0,0-1.17-1l-1.45-.89-2.91-1.77-5.81-3.54-11.69-7h0l-.11,1.58Z" transform="translate(-310.9 -32.98)"/><path class="cls-3" d="M472,296c.05-3.73.09-7.47.17-11.2L461,291.28,452.63,296h-.3l8.3-5.14,11.77-7.16.64-.39v.76c0,4,0,7.95,0,11.93Z" transform="translate(-310.9 -32.98)"/><path class="cls-3" d="M469.43,285.6l-2.87,1.57-5.72,3.15L450.6,296h0l10.2-5.86,5.64-3.29,2.81-1.65c.82-.5,1.7-.95,2.46-1.5a23.18,23.18,0,0,0-2.61-1.53l-3-1.63-6-3.26-6-3.31-3-1.65-1.49-.83a3,3,0,0,0-1.31-.52,1.32,1.32,0,0,0-.57.17l-.72.4-1.49.83-3,1.66-6,3.33-6,3.29-3,1.63c-.85.48-1.74.92-2.53,1.46,1.89,1.13,3.81,2.22,5.71,3.34l6.12,3.56,6.15,3.5,3.08,1.75.19.11h-.08l-.13-.08-3.1-1.71-6.19-3.43-6.22-3.38c-2.07-1.13-4.16-2.23-6.22-3.39l-.37-.21.35-.28a25.56,25.56,0,0,1,2.9-1.83l2.94-1.73,5.89-3.43,5.91-3.39,3-1.7,1.48-.85c.26-.15.46-.27.77-.43a2.4,2.4,0,0,1,1-.27,3.77,3.77,0,0,1,1.84.68l1.48.84,3,1.69,5.92,3.38,5.89,3.44,2.95,1.71a21.81,21.81,0,0,1,2.89,1.86l.26.22-.27.2A28.91,28.91,0,0,1,469.43,285.6Z" transform="translate(-310.9 -32.98)"/><path class="cls-3" d="M444.65,296l-1.77-1-6.13-3.57-6.16-3.51-3.09-1.76c-.92-.52-1.84-1.06-2.78-1.52a2.16,2.16,0,0,0-.1.43l0,.82,0,1.71.09,3.4.11,5H424V285a5.36,5.36,0,0,1,.23-.87l.09-.35.32.16c1.09.54,2.07,1.18,3.09,1.79l3,1.85,6.06,3.69,6.09,3.64,1.85,1.1Z" transform="translate(-310.9 -32.98)"/><path class="cls-3" d="M424.3,283.06h0c-.1-4.52,0-9.05,0-13.58l0-6.79,0-3.4v-1.69a3.25,3.25,0,0,1,.3-1.8,3.74,3.74,0,0,1,1.4-1.17l1.45-.89,2.89-1.77,5.81-3.53,5.82-3.49,2.91-1.74,1.46-.88c.49-.28,1-.53,1.54-.79l.69-.36.09.76c0,.3.1.63.11.91l0,.84,0,1.67,0,3.33-.1,6.68c-.11,4.47-.17,8.86-.33,13.39a1.6,1.6,0,0,1-.43.87,3.13,3.13,0,0,1-.74.52l-1.45.83-2.89,1.66L436.85,276l-11.53,6.74A7.3,7.3,0,0,1,424.3,283.06Zm12.47-7.24,5.7-3.48,2.84-1.74,1.43-.87c.48-.28.84-.59.89-1.06l-.07-13.32V242.83a5.74,5.74,0,0,0-.1-.74l.78.4-1.47.77-1.47.86-2.93,1.71-5.87,3.42-5.89,3.39-2.95,1.68-1.47.85a3.31,3.31,0,0,0-1.23.92,2.83,2.83,0,0,0-.26,1.5l0,1.7-.08,3.39-.16,6.79c0,4.53-.18,9.06-.13,13.58h0a7.26,7.26,0,0,0,1-.36Z" transform="translate(-310.9 -32.98)"/><path class="cls-3" d="M399.82,242.07v0h0a26.27,26.27,0,0,1,3,1.62l2.95,1.71,5.9,3.41,5.94,3.37,3,1.69,1.48.84a3.31,3.31,0,0,1,1.43,1.16,3.83,3.83,0,0,1,.32,1.8l0,1.71.09,3.41.15,6.82.11,6.82.06,3.41,0,1.7c0,.58-.08,1.17-.12,1.75l-.05.87-.75-.44L412,277c-3.76-2.31-7.5-4.52-11.28-6.92a2.37,2.37,0,0,1-.89-1.54,13.85,13.85,0,0,1,0-1.69v-3.3l0-6.59-.06-13.2ZM400,256.9l.16,6.6.08,3.3c0,.55,0,1.12.08,1.61a2,2,0,0,0,.75,1.22c3.72,2.19,7.62,4.35,11.42,6.53l11.42,6.62-.81.42c0-.55.08-1.1.09-1.65v-1.71l0-3.41,0-6.82v-6.82l0-3.41v-1.71a3.35,3.35,0,0,0-.2-1.53,2.82,2.82,0,0,0-1.17-1l-1.46-.88-2.92-1.78L411.59,249l-5.86-3.5-2.93-1.74a26.22,26.22,0,0,0-3-1.65h0l0,1.64Z" transform="translate(-310.9 -32.98)"/><path class="cls-3" d="M423.22,296c0-3.66.09-7.32.17-11l-.17.08-.75.37-1.51.79-3,1.63-6,3.35L406,294.67,403.7,296h-.35c.84-.55,1.69-1.08,2.54-1.62l5.83-3.6,5.89-3.48,3-1.71,1.5-.83c.25-.14.51-.27.77-.4l.4-.2.48-.18.5-.2v.62c0,3.86,0,7.73,0,11.6Z" transform="translate(-310.9 -32.98)"/><path class="cls-3" d="M417.93,287l-5.66,3.11L401.71,296h0l10.51-6,5.57-3.25c1.73-1,3.52-2,5.19-3.11-.36-.24-.72-.48-1.09-.7l-1.5-.81-3-1.63-6-3.26-6-3.3-3-1.66-1.5-.83a2.64,2.64,0,0,0-1.31-.49,2.87,2.87,0,0,0-1.3.55l-1.49.83-3,1.67-6,3.33-6,3.3-3,1.63c-.86.47-1.72.94-2.51,1.48l12,7,6.23,3.56,3,1.73h-.09l-3-1.66-6.27-3.48L375.67,284l-.38-.21.36-.28a22.58,22.58,0,0,1,2.9-1.86l2.94-1.73,5.9-3.43,5.92-3.4,3-1.7,1.48-.85a3.77,3.77,0,0,1,1.83-.68,3.6,3.6,0,0,1,1.85.65l1.49.85,3,1.69,5.93,3.38,5.9,3.43,3,1.72,1.48.86c.48.3.95.65,1.43,1l.32.21-.33.21C421.73,285,419.8,286,417.93,287Z" transform="translate(-310.9 -32.98)"/><path class="cls-3" d="M395.69,296l-1.69-1-6.14-3.57L381.69,288l-3.09-1.75c-.91-.52-1.82-1-2.75-1.5l-.05.44a4.32,4.32,0,0,0,0,.81l0,1.7.09,3.4.11,5h-.9V286a5.44,5.44,0,0,1,0-.89l.14-.84.07-.4.35.18c1.09.53,2.07,1.17,3.09,1.79l3,1.84,6.07,3.7L394,295l1.77,1.05Z" transform="translate(-310.9 -32.98)"/><path class="cls-3" d="M387.44,276.49l-11.78,7.16L375,284v-.76c0-4.55,0-9.1,0-13.65l.08-13.65v-.28l.22-.16c1.93-1.31,3.87-2.46,5.83-3.64l5.89-3.46,5.94-3.39c1-.56,2-1.12,3-1.65l1.52-.79c.26-.14.52-.26.78-.39l.4-.19.5-.17.5-.18v.59c-.17,9.08-.39,18.13-.67,27Zm11.43-34.23.49.42-.3.13-.37.18-.74.39-1.49.82-3,1.67-5.9,3.43-5.85,3.5c-1.93,1.18-3.9,2.36-5.72,3.63l.22-.44-.17,13.65c-.07,4.55-.09,9.1-.2,13.65l-.64-.37,11.82-6.81,12-6.8C398.93,260.18,398.87,251.21,398.87,242.26Z" transform="translate(-310.9 -32.98)"/><path class="cls-3" d="M374.37,296c.05-3.73.09-7.46.17-11.19l-11.17,6.44L355,296h-.3l8.28-5.12,11.77-7.17.63-.38v.75c0,4,0,7.94,0,11.92Z" transform="translate(-310.9 -32.98)"/><path class="cls-3" d="M473.23,143.88c.55.24,1,.56,1.57.84l3.1,1.72,6.2,3.43,12.45,6.78.39.21-.37.29a29.9,29.9,0,0,1-2.91,1.82l-2.94,1.73-5.89,3.43-5.91,3.39-2.95,1.7-1.48.85c-.26.14-.46.27-.78.43a2.4,2.4,0,0,1-1.06.26,3.88,3.88,0,0,1-1.83-.68l-1.48-.85-3-1.69-5.92-3.37-5.9-3.43L451.62,159l-1.48-.86c-.49-.29-.95-.65-1.42-1l-.31-.21.3-.21a26.36,26.36,0,0,1,2.84-1.67l2.86-1.56,5.72-3.14,11.4-6.37A1.81,1.81,0,0,1,473.23,143.88Zm-13,6.66-5.64,3.29-2.82,1.65A23.87,23.87,0,0,0,449,157.2v-.43c.48.3.93.63,1.42.91l1.5.81,3,1.63,6,3.25,6,3.3,3,1.65,1.49.83a3,3,0,0,0,1.31.52,1.28,1.28,0,0,0,.58-.15l.72-.4,1.48-.83,3-1.67,5.95-3.32,6-3.29,3-1.64a29.56,29.56,0,0,0,2.91-1.7l0,.49-6.12-3.58L484,150l-6.16-3.51-3.08-1.76c-.51-.28-1-.61-1.55-.85a1.82,1.82,0,0,0-1.69.14Z" transform="translate(-310.9 -32.98)"/><path class="cls-3" d="M521.08,115.37h0l0,13.57.08,13.57v.15l-.12.09c-1.88,1.32-3.81,2.52-5.74,3.74s-3.86,2.4-5.82,3.55l-5.9,3.44-3,1.68-1.51.82q-.37.21-.78.39l-.4.19-.54.19-.51.15-.1-.62a10.26,10.26,0,0,1-.05-1.73l0-1.66.05-3.32.09-6.65.16-6.65.07-3.33,0-1.66a13.14,13.14,0,0,1,.09-1.72,2.17,2.17,0,0,1,1.25-1.31l1.44-.82,2.88-1.65,5.77-3.32L520,115.76A9.58,9.58,0,0,1,521.08,115.37Zm-12.46,7.24-5.68,3.46-2.83,1.74-1.42.87c-.49.28-.89.56-1,1a11.72,11.72,0,0,0,0,1.59V133l0,3.32,0,6.65,0,6.65v5a10,10,0,0,0,.06,1.59l-.61-.46a1.12,1.12,0,0,1,.25-.11l.37-.18.75-.38,1.5-.79,3-1.63,5.93-3.37,5.9-3.41c2-1.15,3.92-2.3,5.8-3.54l-.12.23.32-13.56.21-13.57h0a7.53,7.53,0,0,0-1.07.38Z" transform="translate(-310.9 -32.98)"/><path class="cls-3" d="M521.5,143.86a3.73,3.73,0,0,1,1.69.62l3.16,1.75,6.33,3.52c4.23,2.31,8.49,4.58,12.7,6.94l.43.25-.42.27-1.44.94-1.47.87-3,1.72-5.9,3.44-5.92,3.4-3,1.7-1.48.84a3.81,3.81,0,0,1-1.85.64,3.52,3.52,0,0,1-1.87-.61l-1.48-.85-3-1.69-5.93-3.39-5.9-3.44-2.95-1.72-1.47-.86a15.26,15.26,0,0,1-1.41-1l-.31-.23.33-.18,11.18-6.17,11.14-6.23A3.14,3.14,0,0,1,521.5,143.86Zm-12.77,6.87L503.21,154l-5.49,3.24,0-.41a15.27,15.27,0,0,0,1.38.95l1.5.81,3,1.63,6,3.27,6,3.31,3,1.65,1.49.83a2.69,2.69,0,0,0,1.33.46,2.84,2.84,0,0,0,1.33-.52l1.48-.83,3-1.67,6-3.33c3.94-2.26,8-4.32,11.91-6.64v.52c-4.13-2.49-8.32-4.89-12.48-7.33l-6.29-3.58-3.14-1.8a3.79,3.79,0,0,0-1.67-.63,3.07,3.07,0,0,0-1.71.49Z" transform="translate(-310.9 -32.98)"/><path class="cls-3" d="M521.65,115.16v0h0l11.8,6.84,5.93,3.37,3,1.69,1.48.84a3.43,3.43,0,0,1,1.4,1.19,3.57,3.57,0,0,1,.38,1.8l0,1.7.09,3.41.15,6.82.11,6.81.06,3.41,0,1.71-.05,1.72,0,.86-.75-.39-1.5-.78-1.42-.85-2.83-1.69-5.68-3.38c-3.77-2.32-7.52-4.51-11.3-6.93a2.45,2.45,0,0,1-.88-1.55,12.1,12.1,0,0,1,0-1.69v-3.3l0-6.61-.06-13.21Zm.14,15,.16,6.6.08,3.31a12,12,0,0,0,.08,1.61,2,2,0,0,0,.75,1.23c3.71,2.21,7.63,4.36,11.43,6.54l5.72,3.31,2.86,1.66,1.43.83,1.44.73-.78.46c.06-4.5,0-9.08,0-13.61V136l0-3.41v-1.71a2.27,2.27,0,0,0-1.4-2.51l-1.45-.89-2.92-1.77-5.82-3.55-11.71-7h0l-.1,1.78Z" transform="translate(-310.9 -32.98)"/><path class="cls-3" d="M551.79,104.91l-.93-.5-2.92-1.59c-1-.47-2-1.34-2.86-.89-3.78,2.16-7.64,4.47-11.46,6.69l-5.77,3.32L525,113.6c-.7.4-1.42.8-2.08,1.23L534,121.14l5.89,3.41,2.94,1.71,1.47.85a3.66,3.66,0,0,0,1.42.63,2.62,2.62,0,0,0,1.42-.52l1.5-.81,3-1.64.21-.11v.44h0l-2.93,1.72-1.47.86a3.11,3.11,0,0,1-1.72.64,4.18,4.18,0,0,1-1.7-.66l-1.5-.81-3-1.62-6-3.27c-4-2.21-8-4.36-11.9-6.63l-.72-.41.69-.5a27.35,27.35,0,0,1,2.89-1.74l2.9-1.62,5.81-3.25c3.92-2.13,7.74-4.27,11.73-6.38a2.12,2.12,0,0,1,1.81.16l1.45.84,2.87,1.68.77.45Z" transform="translate(-310.9 -32.98)"/><path class="cls-3" d="M551.79,126.28l-5.08,3.11c0,4.48,0,9-.05,13.43l-.07,12.75.68-.35,1.47-.86,3-1.73.1-.06v1.22l-2.5,1.49-1.46.87-1.54.81-.81.43v-.92l.18-13.66c.06-4.55.09-9.1.2-13.66v-.24l.21-.11,5.71-3.27Z" transform="translate(-310.9 -32.98)"/><path class="cls-3" d="M551.79,154.06c-1.62,1-3.28,1.88-4.84,2.9.14.11.26.23.38.32s.48.27.71.4l1.5.82,2.25,1.22v.79L549.25,159l-1.48-.86c-.25-.16-.48-.26-.76-.47s-.43-.41-.64-.58l-.26-.23.29-.18c1.77-1.1,3.59-2,5.39-3Z" transform="translate(-310.9 -32.98)"/></g><g class="cls-2"><path class="cls-4" d="M551.79,198.9l-3.31,1.85-8.69,4.86c-5.57,3.17-11.32,6.11-16.82,9.34a40.71,40.71,0,0,0,3.81,2.38l4.49,2.62,9,5.24,9,5.16,2.5,1.43v.1l-2.56-1.42-9.09-5.05-9.13-5-4.57-2.49a32.42,32.42,0,0,1-4.5-2.69l-.47-.37.5-.34c1.39-.94,2.81-1.8,4.25-2.62l4.29-2.52,8.59-5,8.63-5,4.06-2.33Z" transform="translate(-310.9 -32.98)"/><path class="cls-4" d="M485.79,152.33h0c-.16-6.61,0-13.22,0-19.83l-.07-9.92,0-4.95,0-2.48a4.65,4.65,0,0,1,.45-2.63,5.45,5.45,0,0,1,2-1.69l2.12-1.3,4.23-2.59,8.47-5.15,8.5-5.1,4.25-2.55,2.13-1.28c.72-.41,1.49-.78,2.24-1.17l1-.52.14,1.1a11.16,11.16,0,0,1,.17,1.34l0,1.23,0,2.44-.07,4.89-.14,9.78c-.16,6.55-.23,13-.5,19.62a2.34,2.34,0,0,1-.7,1.25,5.27,5.27,0,0,1-1.08.73l-2.12,1.22-4.25,2.42L504,142.05l-16.88,9.87A6.55,6.55,0,0,1,485.79,152.33Zm18.07-10.47,8.35-5.1,4.17-2.55,2.08-1.28c.72-.4,1.28-.83,1.38-1.52,0-6.36-.07-13-.09-19.48l0-9.78V93.59c0-.4-.12-.71-.16-1.07l1.14.58-2.15,1.12-2.14,1.25L512.2,98l-8.57,5-8.59,5-4.31,2.46-2.15,1.23a4.84,4.84,0,0,0-1.8,1.35,3.92,3.92,0,0,0-.39,2.18l-.06,2.48-.11,5-.23,9.91c-.05,6.61-.27,13.22-.19,19.83h0a6.49,6.49,0,0,0,1.3-.39Z" transform="translate(-310.9 -32.98)"/><path class="cls-4" d="M485.92,153.85v0h0l17.23,10,8.65,4.92,4.33,2.47,2.16,1.23a5,5,0,0,1,2.05,1.73,5.14,5.14,0,0,1,.56,2.63l.06,2.48.13,5,.22,10,.16,9.95.08,5,0,2.49-.13,2.53-.06,1.22-1.08-.56-2.18-1.14-2.07-1.23L512,210l-8.28-4.94c-5.5-3.37-11-6.59-16.5-10.1a3.54,3.54,0,0,1-1.26-2.29,22.69,22.69,0,0,1-.05-2.46l0-4.82,0-9.64-.09-19.29Zm.21,21.89.22,9.64.13,4.82a20,20,0,0,0,.11,2.36,2.75,2.75,0,0,0,1.06,1.8c5.43,3.21,11.14,6.36,16.69,9.54l8.35,4.84,4.17,2.41,2.08,1.21,2.11,1.07-1.14.66.1-2.44,0-2.49,0-5-.05-10v-10l0-5V176.8a4.2,4.2,0,0,0-.37-2.19,4.14,4.14,0,0,0-1.68-1.47l-2.13-1.3-4.25-2.59-8.5-5.19-17.11-10.19,0,0-.14,2.6Z" transform="translate(-310.9 -32.98)"/><path class="cls-4" d="M494.48,148.84l-4.07,2.39-2,1.19-1.42,1,16.94,9.22,8.7,4.82,4.34,2.41,2.18,1.21a4.22,4.22,0,0,0,1.93.75,3.83,3.83,0,0,0,1.89-.73l2.17-1.22,4.34-2.42,8.68-4.85,8.71-4.8,4.36-2.38.6-.33v1.15l-.1.06-4.29,2.51-8.59,5-8.62,4.95-4.31,2.48-2.15,1.23a5.3,5.3,0,0,1-2.72.93,5.72,5.72,0,0,1-2.67-1l-2.15-1.23-4.32-2.46-8.63-4.93-17.18-10-.52-.3.5-.32,2-1.3,2.07-1.13,4.14-2.26,8.27-4.56L519,134.68l-16.36,9.41Z" transform="translate(-310.9 -32.98)"/><path class="cls-4" d="M551.79,151.35l-.77-.45-4.52-2.64-9-5.27-9.08-5.19-4.54-2.59a7.79,7.79,0,0,0-2.36-1.09,3.68,3.68,0,0,0-2.49.56,3.75,3.75,0,0,1,2.5-.59,7.74,7.74,0,0,1,2.38,1.07l4.57,2.54,9.14,5.08,9.19,5,4.6,2.5.42.24Z" transform="translate(-310.9 -32.98)"/><path class="cls-4" d="M522.72,132.78c.7.48,1.48.88,2.21,1.32l4.47,2.6,8.93,5.19,9,5.11,4.49,2.56v.8l-.35-.21L547,147.46l-8.82-5.37-8.87-5.29-4.44-2.65c-.73-.45-1.49-.85-2.2-1.35a2.66,2.66,0,0,1-1-2.28A2.65,2.65,0,0,0,522.72,132.78Z" transform="translate(-310.9 -32.98)"/><path class="cls-4" d="M551.79,111l-.67-.4-4.27-2.55L538.3,103l-8.49-5.17-4.25-2.58-2.13-1.3-1.06-.64a2.37,2.37,0,0,0-.45-.26l-.15-.05c-.11,1.4-.09,2.84-.1,4.26l0,4.76,0,9.51.1,19-.32-19-.22-9.51-.13-4.75c0-1.59-.12-3.16,0-4.78l0-.45.45.11.6.16a3.13,3.13,0,0,1,.64.32l1.08.61L526,94.43l4.33,2.46L539,101.8l8.6,5,4.2,2.44Z" transform="translate(-310.9 -32.98)"/><polygon class="cls-4" points="240.89 124.23 228.51 131.38 211 141.31 227.94 130.82 240.89 122.94 240.89 124.23"/><path class="cls-4" d="M522.4,212.74l1.09-.57,2.17-1.21,4.33-2.45,8.62-5,8.55-5.12c1.54-.94,3.1-1.88,4.63-2.85v1.84L548,199.7l-8.61,5.06-8.67,5c-1.45.82-2.9,1.64-4.37,2.42l-2.22,1.16-1.13.57-.59.27-.71.27-.74.27v-.88c.25-13.26.57-26.49,1-39.5.16,13,.24,25.82.24,38.58Z" transform="translate(-310.9 -32.98)"/><path class="cls-4" d="M522.1,246.68l.12,4.88.07,2.44a2.38,2.38,0,0,0,.82,1.89,15.74,15.74,0,0,0,2,1.23l2.12,1.2,4.25,2.41,8.49,4.81,11.81,6.82v1.75l-12.5-7.4L531,261.65l-4.17-2.53-2.09-1.27a15.53,15.53,0,0,1-2.1-1.39,3.14,3.14,0,0,1-1-2.46l0-2.44,0-4.88,0-9.76-.09-19.51.32,19.51Z" transform="translate(-310.9 -32.98)"/><path class="cls-4" d="M551.79,233.74l-.1-.06-4.25-2.59L539,225.92l-8.54-5.09-4.27-2.55c-1.42-.84-2.82-1.72-4.31-2.44a11.72,11.72,0,0,0-.28,1.57,10.78,10.78,0,0,1,.27-1.59h0c1.5.71,2.92,1.58,4.35,2.41l4.3,2.49,8.6,5,8.64,4.92,4.07,2.31Z" transform="translate(-310.9 -32.98)"/><path class="cls-4" d="M551.79,280.23l-12.22,7.5-8.5,5.16-4.25,2.57-1,.58h-2.28c.17-.11.35-.21.51-.3l2.15-1.24,4.31-2.48,8.61-5c4.22-2.36,8.4-4.79,12.62-7.15Z" transform="translate(-310.9 -32.98)"/><polygon class="cls-4" points="236.77 248.22 240.89 245.8 240.89 246.5 237 248.62 228.62 253.23 211.92 262.56 228.51 253.04 236.77 248.22"/><path class="cls-4" d="M551.79,274.54l-.23-.12-4.37-2.37-8.72-4.74-8.69-4.82-4.34-2.41-2.17-1.2a4.61,4.61,0,0,0-1.93-.8,3.75,3.75,0,0,0-1.87.73L517.3,260,513,262.44l-8.67,4.85c-5.57,3.16-11.33,6.1-16.81,9.33l.51.41a10,10,0,0,0,1.05.65l2.23,1.3,4.46,2.6,8.92,5.19,9,5.11,4.49,2.56c.75.41,1.48.87,2.25,1.25a2.54,2.54,0,0,0,2.46-.15,2.53,2.53,0,0,1-2.47.18c-.78-.38-1.52-.82-2.27-1.23L513.56,292l-9-5-9.07-4.93-4.54-2.46-2.27-1.24a11,11,0,0,1-1.16-.67l-1-.78-.45-.35.47-.35c1.38-1,2.83-1.76,4.26-2.62l4.28-2.51,8.58-5,8.61-4.95,4.3-2.47,2.16-1.23a4.94,4.94,0,0,1,2.72-.93,6.13,6.13,0,0,1,2.64,1l2.15,1.23,4.31,2.46,8.63,4.92,8.58,5,4.08,2.38Z" transform="translate(-310.9 -32.98)"/><path class="cls-4" d="M517.84,296l-.26-.16-4.48-2.6-9-5.19-9-5.13-4.5-2.56c-1.35-.74-2.67-1.56-4-2.21a5.67,5.67,0,0,0-.11.66c0,.31,0,.78,0,1.18l.06,2.48.13,5,.2,8.56h-1.35v-8.55l0-5V280a11.69,11.69,0,0,1,0-1.3c.07-.47.19-.86.26-1.24l.1-.55.5.24c1.61.77,3,1.73,4.51,2.61l4.42,2.7,8.86,5.38,8.89,5.3,4.45,2.65.34.21Z" transform="translate(-310.9 -32.98)"/><path class="cls-4" d="M486,275.87h0v0l.06-19.94L485.94,236v-.24l.22-.14c5.63-3.43,11.23-6.93,16.89-10.31l8.49-5.1,4.24-2.55,2.12-1.27c.37-.2.69-.43,1.1-.61l.58-.28.29-.14.08,0,0,0a.86.86,0,0,1,.23-.06.85.85,0,0,1,.28,0,1,1,0,0,1,.31.1h0l0,0,.35.22.33.22v.4c0,6.46-.14,12.79-.22,19.2s-.25,12.71-.5,19.22a3,3,0,0,1-1.54,2.1l-2.09,1.2-4.16,2.38-8.31,4.78-16.55,9.67Zm18.6-11,8.18-5,4.09-2.5c1.28-.9,3.08-1.46,3.2-2.91,0-6.26-.07-12.74-.09-19.1s.09-12.82,0-19.13l.34.61-.18-.12.07,0c-.08,0-.11,0,0,0a.68.68,0,0,0,.21,0l.19-.06h0l-.06,0-.27.13-.53.25c-.35.16-.7.41-1.06.61L516.58,219l-4.27,2.5-8.55,5c-5.68,3.35-11.44,6.58-17.15,9.87l.21-.37-.48,19.93L486,275.86l0,0,2.18-1.09Z" transform="translate(-310.9 -32.98)"/><path class="cls-4" d="M484.92,234.26a8.91,8.91,0,0,1-2.36-1.1L478,230.62l-9.12-5.07-9.18-5-4.58-2.5a28.81,28.81,0,0,1-4.51-2.73l-.44-.36.46-.34c1.38-1,2.84-1.78,4.26-2.64l4.29-2.52,8.6-5,8.63-5,4.31-2.48,2.16-1.24a4.89,4.89,0,0,1,2.73-.94,6.17,6.17,0,0,1,2.63,1l2.16,1.24,4.32,2.46,8.65,4.93,17.19,10,.53.31-.52.33-2,1.26-2.08,1.14-4.16,2.28L504,224.44l-16.57,9.25A3.5,3.5,0,0,1,484.92,234.26Zm18.95-10,8.19-4.78,4.1-2.4,2-1.2,2-1.31,0,.64-17.48-9.52-8.7-4.83-4.36-2.41-2.17-1.21a4.9,4.9,0,0,0-2-.8c-.55-.05-1.08.31-1.86.75l-2.17,1.21-4.34,2.43-8.69,4.86-8.72,4.8-4.36,2.39c-1.44.81-3,1.55-4.27,2.47l0-.7a27.51,27.51,0,0,0,4.33,2.81l4.51,2.63,9,5.26,9.06,5.18,4.54,2.59a9.09,9.09,0,0,0,2.33,1.12,3.48,3.48,0,0,0,2.49-.54Z" transform="translate(-310.9 -32.98)"/><path class="cls-4" d="M450.05,111.44l-.23-9.49-.12-4.74c-.06-1.58-.09-3.17,0-4.77l0-.54.51.22a46.35,46.35,0,0,1,4.41,2.36L459,96.94l8.65,4.91,8.61,5,4.3,2.5,2.15,1.25,1.11.65a3.49,3.49,0,0,1,1.12,1.14,5.6,5.6,0,0,1,.48,2.82v2.48l0,5,.05,10v9.94l0,5V150c0,.83-.13,1.68-.2,2.51l0,.63-.57-.28c-1.6-.77-3-1.73-4.51-2.62l-4.44-2.7-8.87-5.4-8.92-5.32-4.46-2.66a24,24,0,0,1-2.2-1.39,3,3,0,0,1-.86-2.37Zm1.19,21.33a23.72,23.72,0,0,0,2.21,1.35l4.49,2.61,9,5.22,9,5.15,4.51,2.56c1.51.84,3,1.78,4.54,2.46l-.61.35c0-.82.13-1.62.11-2.44l-.06-2.49-.13-5-.23-9.95-.17-10-.08-5,0-2.49a4.51,4.51,0,0,0-.27-2,1.8,1.8,0,0,0-.61-.62l-1-.62-2.14-1.27-4.27-2.55L466.93,103l-8.5-5.18-4.25-2.58a44.92,44.92,0,0,0-4.28-2.46l.54-.32c-.12,1.55-.14,3.13-.13,4.72l0,4.75,0,9.49.09,19A3,3,0,0,0,451.24,132.77Z" transform="translate(-310.9 -32.98)"/><path class="cls-4" d="M485.16,159l0,5,.1,9.94,0,9.94v7.46a5.21,5.21,0,0,1-.43,2.73,5.52,5.52,0,0,1-2.13,1.78l-2.12,1.29-4.27,2.55-8.54,5.1-8.53,5.09-4.27,2.55a40.42,40.42,0,0,1-4.41,2.44l-1,.45-.11-1.11a47.41,47.41,0,0,1-.07-5l.05-5,.12-9.94.12-9.94.07-5,0-2.49a5.4,5.4,0,0,1,.49-2.73,5.32,5.32,0,0,1,2.15-1.73l2.15-1.24,4.31-2.49,8.61-5,8.65-4.91,4.33-2.46a42.83,42.83,0,0,1,4.41-2.29A48.59,48.59,0,0,1,485.16,159Zm-4.5-2.47-4.24,2.61L468,164.4l-8.5,5.16-4.25,2.58-2.13,1.29a4.41,4.41,0,0,0-1.68,1.34,4.13,4.13,0,0,0-.26,2.12v2.49l0,5,0,9.94-.05,10,0,5a46.58,46.58,0,0,0,.11,4.9l-1.14-.66a39.41,39.41,0,0,0,4.29-2.35l4.29-2.52,8.58-5,8.57-5L480,196l2.15-1.24a4.52,4.52,0,0,0,1.72-1.29,4.28,4.28,0,0,0,.31-2.12l.05-2.48.1-5,.19-10,.27-9.94.13-5a45.76,45.76,0,0,0,0-5A42.48,42.48,0,0,0,480.66,156.57Z" transform="translate(-310.9 -32.98)"/><path class="cls-4" d="M450.43,215.64v0h0l17.2,10,8.64,4.91,4.32,2.46,2.16,1.23a5.15,5.15,0,0,1,2.05,1.7,5,5,0,0,1,.58,2.63l.06,2.48.13,5,.21,9.93.17,9.94.08,5,0,2.48-.12,2.53-.05,1.18-1.09-.51c-1.5-.72-2.89-1.55-4.26-2.38l-4.15-2.48-8.3-5-16.54-10.11a3.15,3.15,0,0,1-1.21-2.34c-.05-.86,0-1.63,0-2.45l0-4.83,0-9.67-.1-19.34Zm.19,21.63.23,9.67.12,4.83c.1,1.59-.21,3.38,1.07,4.18l16.76,9.56,8.36,4.86,4.18,2.43a46.53,46.53,0,0,0,4.2,2.28l-1.14.67.08-2.44v-2.49l0-5,0-9.93V246l0-5v-2.49a4.14,4.14,0,0,0-.38-2.18,4.32,4.32,0,0,0-1.7-1.46l-2.13-1.3L476,231l-8.49-5.17-17.07-10.18h0l-.16,2.29Z" transform="translate(-310.9 -32.98)"/><path class="cls-4" d="M484.43,296c.08-5.91.13-11.81.26-17.71l-16.32,9.4L453.74,296h-.24l14.31-8.86L485,276.72l.92-.57v1.1c0,6.27,0,12.53-.06,18.79Z" transform="translate(-310.9 -32.98)"/><path class="cls-4" d="M449,295.8c-.79-.36-1.52-.82-2.28-1.23l-4.52-2.5-9.05-5-9.09-4.93c-3-1.66-6.07-3.26-9.08-5l-.54-.31.51-.41a37.49,37.49,0,0,1,4.24-2.67l4.29-2.52,8.61-5,8.63-5,4.32-2.48,2.16-1.24c.38-.22.68-.4,1.12-.63a3.55,3.55,0,0,1,1.55-.39,5.41,5.41,0,0,1,2.68,1l2.17,1.24,4.32,2.47,8.65,4.94,8.6,5,4.3,2.51a30.78,30.78,0,0,1,4.22,2.71l.39.32-.39.29a39.62,39.62,0,0,1-4.15,2.42l-4.18,2.28-8.36,4.6-16.64,9.3A2.58,2.58,0,0,1,449,295.8Zm19-9.67,8.24-4.81,4.12-2.41a40.4,40.4,0,0,0,4-2.5v.6a29.46,29.46,0,0,0-4.22-2.53l-4.37-2.38L467,267.34l-8.71-4.83L454,260.09l-2.18-1.21a4.1,4.1,0,0,0-1.91-.75,1.84,1.84,0,0,0-.84.23L448,259l-2.17,1.22-4.35,2.42-8.69,4.86-8.72,4.81-4.37,2.39a36.2,36.2,0,0,0-4.25,2.5l0-.72c2.94,1.78,5.95,3.48,8.92,5.22l8.94,5.2,9,5.11,4.49,2.56c.75.41,1.48.88,2.26,1.25a2.59,2.59,0,0,0,2.47-.15Z" transform="translate(-310.9 -32.98)"/><path class="cls-4" d="M446.8,296l-.43-.26-4.48-2.6-9-5.21-9-5.14-4.5-2.56c-1.35-.76-2.7-1.57-4.07-2.23a3.18,3.18,0,0,0-.14.63l0,1.21.06,2.48.12,5,.2,8.7h-1.36l0-8.69,0-5v-2.49l0-1.28a7.72,7.72,0,0,1,.34-1.28l.12-.51.48.24c1.59.78,3,1.72,4.5,2.61l4.43,2.7,8.85,5.39,8.89,5.31,4.45,2.66.51.31Z" transform="translate(-310.9 -32.98)"/><path class="cls-4" d="M414.75,275.72h0c-.15-6.61,0-13.22,0-19.84l-.07-9.92,0-5,0-2.48a4.75,4.75,0,0,1,.44-2.63,5.53,5.53,0,0,1,2.05-1.7l2.12-1.3,4.23-2.58,8.47-5.16,8.51-5.1,4.25-2.55,2.13-1.27c.72-.42,1.5-.77,2.25-1.16l1-.52.13,1.11a12.89,12.89,0,0,1,.15,1.33v1.22l0,2.44-.06,4.87-.14,9.75c-.16,6.53-.25,13-.48,19.56a2.31,2.31,0,0,1-.64,1.27,4.13,4.13,0,0,1-1.07.76l-2.12,1.22-4.23,2.42-8.46,4.85-16.84,9.84A8.74,8.74,0,0,1,414.75,275.72ZM433,265.15l8.32-5.08,4.16-2.55,2.08-1.27a2.17,2.17,0,0,0,1.31-1.55l-.11-19.45,0-9.75V217c0-.4-.11-.72-.15-1.09l1.14.59-2.16,1.12-2.14,1.25-4.28,2.5-8.57,5-8.6,4.95-4.31,2.46L417.54,235a4.72,4.72,0,0,0-1.79,1.35,4,4,0,0,0-.39,2.19L415.3,241l-.11,5-.23,9.91c-.06,6.62-.27,13.23-.2,19.84h0a9.62,9.62,0,0,0,1.48-.52Z" transform="translate(-310.9 -32.98)"/><path class="cls-4" d="M379,215.84v0h0a40.33,40.33,0,0,1,4.39,2.37l4.31,2.5,8.62,5L405,230.6l4.34,2.46,2.16,1.23a4.88,4.88,0,0,1,2.08,1.7,5.53,5.53,0,0,1,.47,2.64l.06,2.49.13,5,.22,10,.17,10,.08,5,0,2.49c0,.84-.11,1.7-.17,2.55l-.08,1.28-1.09-.65-16.57-9.87c-5.49-3.38-10.95-6.61-16.47-10.1a3.5,3.5,0,0,1-1.3-2.26A20.71,20.71,0,0,1,379,252l0-4.81,0-9.64-.09-19.27Zm.28,21.68.22,9.63.12,4.82a19.59,19.59,0,0,0,.13,2.35,2.73,2.73,0,0,0,1.09,1.78c5.44,3.21,11.13,6.37,16.68,9.55l16.67,9.66-1.17.62c0-.81.11-1.6.13-2.42l0-2.49,0-5,0-10v-10l0-5v-2.49a4.89,4.89,0,0,0-.29-2.23,4,4,0,0,0-1.71-1.42l-2.13-1.3-4.26-2.59-8.51-5.17-8.56-5.11-4.28-2.55a40.07,40.07,0,0,0-4.35-2.41l0,0-.07,2.41Z" transform="translate(-310.9 -32.98)"/><path class="cls-4" d="M413.16,296c.08-5.8.13-11.59.26-17.38l-.25.11c-.37.18-.73.35-1.1.55l-2.21,1.15-4.38,2.38-8.71,4.89-8.69,4.94c-1.9,1.12-3.81,2.22-5.7,3.36h-.3c1.9-1.28,3.84-2.5,5.78-3.72l8.51-5.26L405,282l4.34-2.49,2.2-1.21c.37-.2.74-.4,1.13-.59l.58-.29.7-.27.74-.29v.9c0,6.1,0,12.21-.06,18.31Z" transform="translate(-310.9 -32.98)"/><path class="cls-4" d="M378.22,295.86a7.64,7.64,0,0,1-2.39-1.06l-4.57-2.54-9.15-5.09-18.39-10-.57-.31.53-.42a33.71,33.71,0,0,1,4.24-2.71l4.3-2.53,8.62-5,8.64-5,4.33-2.48,2.16-1.24a5.62,5.62,0,0,1,2.68-1,5.35,5.35,0,0,1,2.7,1l2.16,1.23,4.34,2.47,8.66,4.94,8.62,5,4.31,2.51,2.15,1.25c.71.44,1.39.95,2.09,1.42l.47.31-.48.3c-2.68,1.7-5.49,3.08-8.23,4.63l-8.26,4.54-16.47,9.2A3.66,3.66,0,0,1,378.22,295.86Zm18.85-10,8.14-4.75c2.69-1.62,5.49-3.1,8.07-4.85v.62c-.69-.44-1.36-.91-2.08-1.33L409,274.37,404.62,272l-8.77-4.76-8.72-4.83L382.77,260l-2.18-1.21a4,4,0,0,0-1.92-.72,4.19,4.19,0,0,0-1.91.81l-2.17,1.21-4.36,2.44-8.7,4.86-8.74,4.82-4.37,2.39a32.18,32.18,0,0,0-4.23,2.53l0-.73L362.23,287l9.09,5.19,4.54,2.6a7.64,7.64,0,0,0,2.36,1.08,3.71,3.71,0,0,0,2.49-.57Z" transform="translate(-310.9 -32.98)"/><path class="cls-4" d="M375.29,296l-.31-.19-4.49-2.6-9-5.21-9-5.14L348,280.33c-1.33-.74-2.65-1.53-4-2.19l-.09.65a7.66,7.66,0,0,0,0,1.18l.06,2.48.13,5,.2,8.61h-1.36v-8.6l0-5,0-2.49a8.51,8.51,0,0,1,0-1.31l.2-1.22.1-.59.52.26c1.58.79,3,1.72,4.5,2.62l4.44,2.69,8.86,5.4,8.91,5.31L375,295.8l.39.24Z" transform="translate(-310.9 -32.98)"/><path class="cls-4" d="M360.9,266.12l-17.19,10.46-.93.57v-1.1c0-6.65.05-13.3.07-19.94l.11-19.94v-.42l.32-.22c2.82-1.92,5.66-3.59,8.52-5.32l8.6-5.06,8.67-5c1.45-.81,2.9-1.63,4.38-2.41l2.22-1.16c.36-.19.75-.38,1.13-.56l.59-.27.72-.26.73-.26v.87c-.25,13.26-.57,26.48-1,39.48Zm16.71-50,.71.61-.44.19-.54.27c-.36.18-.72.36-1.08.56l-2.18,1.2-4.33,2.44-8.62,5-8.55,5.11c-2.82,1.73-5.69,3.46-8.36,5.3l.33-.64-.25,19.94c-.1,6.65-.13,13.29-.29,19.94l-.93-.54,17.26-10,17.51-9.93C377.68,242.31,377.61,229.2,377.61,216.13Z" transform="translate(-310.9 -32.98)"/><path class="cls-4" d="M341.81,296c.08-5.9.13-11.8.26-17.7l-16.32,9.41L311.14,296h-.24l14.29-8.84,17.2-10.47.92-.56v1.1c0,6.26,0,12.51-.06,18.77Z" transform="translate(-310.9 -32.98)"/><path class="cls-4" d="M486.22,72.43c.8.35,1.52.81,2.29,1.22L493,76.16l9.06,5,18.19,9.9.57.31-.54.41a43.59,43.59,0,0,1-4.25,2.67L511.77,97l-8.6,5-8.64,5-4.32,2.48-2.15,1.23c-.38.22-.68.4-1.13.63a3.45,3.45,0,0,1-1.55.38,5.51,5.51,0,0,1-2.68-1l-2.16-1.23L476.21,107l-8.65-4.93-8.61-5-4.3-2.5L452.5,93.3c-.72-.43-1.39-1-2.09-1.42l-.44-.3.44-.32a39.48,39.48,0,0,1,4.14-2.42l4.18-2.29L467.09,82l16.65-9.3A2.64,2.64,0,0,1,486.22,72.43Zm-19,9.72L459,87l-4.12,2.41a40.39,40.39,0,0,0-4,2.52v-.62c.7.44,1.35.92,2.07,1.32l2.19,1.19,4.38,2.37,8.75,4.75,8.71,4.83,4.36,2.41,2.17,1.21a4.16,4.16,0,0,0,1.92.76,1.84,1.84,0,0,0,.84-.23l1-.58,2.18-1.21,4.35-2.43,8.69-4.86L511.2,96l4.37-2.38a44.48,44.48,0,0,0,4.26-2.5l0,.72-8.94-5.22L502,81.39l-9-5.13-4.49-2.56c-.76-.41-1.49-.89-2.27-1.24a2.62,2.62,0,0,0-2.47.2Z" transform="translate(-310.9 -32.98)"/><path class="cls-4" d="M551.79,33l-13.88,8.33-8.29,5.06L525.48,49l-2.07,1.27c-.72.41-1.3.82-1.42,1.49A17.66,17.66,0,0,0,522,54v2.43l0,4.86.06,9.71,0,9.71V88c0,.4,0,.85,0,1.27l.11,0,1.08-.55,2.19-1.15,4.36-2.39,8.66-4.92,8.62-5c1.59-.94,3.17-1.88,4.75-2.84v1.19c-1.38.89-2.77,1.76-4.16,2.64-2.82,1.76-5.64,3.51-8.51,5.19l-8.62,5-4.35,2.45-2.2,1.2c-.37.2-.75.38-1.14.57l-.58.27c-.26.1-.53.19-.79.27l-.74.23-.16-.9a15.69,15.69,0,0,1-.07-2.53l0-2.43.07-4.85.13-9.72.22-9.71.12-4.85L521.1,54a17.11,17.11,0,0,1,.14-2.51,3.11,3.11,0,0,1,1.81-1.92l2.11-1.2L529.37,46l8.43-4.84,14-8.18Z" transform="translate(-310.9 -32.98)"/><path class="cls-4" d="M551.79,74.54l-13.72,7.9L530,87.14l-7.54,4.45a11.66,11.66,0,0,0,1.57,1.06l2.19,1.19,4.38,2.38,8.76,4.77,8.72,4.84,3.69,2v1.73l-.07,0-4.33-2.47-8.66-5-8.61-5-4.31-2.51-2.16-1.26a22.24,22.24,0,0,1-2-1.49l-.46-.33.49-.27,16.33-9,13.83-7.74Z" transform="translate(-310.9 -32.98)"/></g></g></g></svg>