<svg id="Calque_1" data-name="Calque 1" xmlns="http://www.w3.org/2000/svg" xmlns:xlink="http://www.w3.org/1999/xlink" viewBox="0 0 221.32 255.52"><defs><style>.cls-1,.cls-2,.cls-3,.cls-4{fill:none;}.cls-2{clip-path:url(#clip-path);}.cls-3{clip-path:url(#clip-path-2);}.cls-4{stroke:#e4e4e4;stroke-miterlimit:10;stroke-width:0.91px;}.cls-5{clip-path:url(#clip-path-3);}.cls-6{fill:#f3f3f3;}</style><clipPath id="clip-path"><rect class="cls-1" x="-13.03" y="-1542.92" width="247.2" height="1806.4"/></clipPath><clipPath id="clip-path-2"><path class="cls-2" d="M2.15-1320.37c40-104.53,86.66-182.4,108.69-182.4,21.76,0,67.71,79.37,108.69,182.4h0a38.57,38.57,0,0,1,2.15,12.28V8.43h0a37.53,37.53,0,0,1-2,12.08q-80.4,235-108.82,235T2,20.49H2A37.45,37.45,0,0,1,0,8.43V-1308.09H0A42.27,42.27,0,0,1,2.15-1320.37Z"/></clipPath><clipPath id="clip-path-3"><rect class="cls-3" x="-12.9" y="-1542.92" width="247.2" height="1806.4"/></clipPath></defs><title>Plan de travail 1</title><g id="Layer_1" data-name="Layer 1"><rect class="cls-4" x="14.27" y="161.38" width="0.2" height="0.1"/><g id="plane_bgr" data-name="plane bgr"><g class="cls-5"><rect class="cls-6" x="-3.22" y="-1545.32" width="228.26" height="1803.21"/></g></g></g></svg>