<svg id="Calque_1" data-name="Calque 1" xmlns="http://www.w3.org/2000/svg" xmlns:xlink="http://www.w3.org/1999/xlink" viewBox="0 0 40 22"><defs><style>.cls-1,.cls-2,.cls-3,.cls-4,.cls-5,.cls-6{fill:none;}.cls-2{clip-path:url(#clip-path);}.cls-3{clip-path:url(#clip-path-2);}.cls-4{clip-path:url(#clip-path-4);}.cls-5{clip-path:url(#clip-path-6);}.cls-6{clip-path:url(#clip-path-9);}.cls-7{fill:#2db4d0;fill-rule:evenodd;}.cls-8{clip-path:url(#clip-path-14);}.cls-9{fill:#fff;}.cls-10{clip-path:url(#clip-path-15);}.cls-11{clip-path:url(#clip-path-16);}.cls-12{clip-path:url(#clip-path-17);}.cls-13{clip-path:url(#clip-path-18);}.cls-14{clip-path:url(#clip-path-19);}.cls-15{clip-path:url(#clip-path-20);}.cls-16{clip-path:url(#clip-path-21);}.cls-17{clip-path:url(#clip-path-22);}.cls-18{clip-path:url(#clip-path-23);}.cls-19{clip-path:url(#clip-path-24);}.cls-20{clip-path:url(#clip-path-25);}.cls-21{clip-path:url(#clip-path-26);}.cls-22{clip-path:url(#clip-path-27);}</style><clipPath id="clip-path"><rect class="cls-1" x="13.06" y="2.75" width="16.2" height="14.5" transform="translate(-2.15 7.83) rotate(-19.99)"/></clipPath><clipPath id="clip-path-2"><rect class="cls-1" x="12.5" y="3.8" width="16.2" height="14.5"/></clipPath><clipPath id="clip-path-4"><rect class="cls-1" x="9.94" y="-4.08" width="16.2" height="14.5" transform="translate(8.89 19.04) rotate(-70.01)"/></clipPath><clipPath id="clip-path-6"><rect class="cls-1" x="16.32" y="4.99" width="16.2" height="14.5" transform="translate(4.57 31) rotate(-70.01)"/></clipPath><clipPath id="clip-path-9"><rect class="cls-1" x="13.63" y="6.05" width="16.2" height="14.5" transform="translate(-3.24 8.23) rotate(-19.99)"/></clipPath><clipPath id="clip-path-14"><path class="cls-4" d="M12,7.58h0c.16-.15.51-.24.67-.08l2.59,2.23h0a.47.47,0,0,1,.08.66h0a.49.49,0,0,1-.67.08L12.1,8.25h0A.45.45,0,0,1,12,7.58Z"/></clipPath><clipPath id="clip-path-15"><path class="cls-3" d="M14.9,13h0a.65.65,0,0,1,.6.6v3.9h0a.65.65,0,0,1-.6.6h0a.65.65,0,0,1-.6-.6V13.6h0q.15-.6.6-.6Z"/></clipPath><clipPath id="clip-path-16"><path class="cls-3" d="M16.5,13h0a.65.65,0,0,1,.6.6v3.9h0a.65.65,0,0,1-.6.6h0a.65.65,0,0,1-.6-.6V13.6h0q.15-.6.6-.6Z"/></clipPath><clipPath id="clip-path-17"><path class="cls-2" d="M16.45,7.3h0a.44.44,0,0,1,.66.08L19.34,10h0a.45.45,0,0,1-.08.67h0a.45.45,0,0,1-.67-.08L16.37,8h0a.42.42,0,0,1,.08-.67Z"/></clipPath><clipPath id="clip-path-18"><path class="cls-3" d="M14.4,6.8h2.7a.43.43,0,0,1,.4.4v.1l-.4,3.2H14.3l-.4-3.2h0a.47.47,0,0,1,.5-.5Z"/></clipPath><clipPath id="clip-path-19"><path class="cls-3" d="M14,13.4h3.5a.43.43,0,0,0,.4-.4v-.1l-.8-3.2H14.3l-.8,3.2h0c0,.2.1.4.5.5Z"/></clipPath><clipPath id="clip-path-20"><path class="cls-3" d="M15.8,6.3A1.3,1.3,0,1,0,14.5,5a1.4,1.4,0,0,0,1.3,1.3Z"/></clipPath><clipPath id="clip-path-21"><path class="cls-5" d="M21.71,7.53h0c.17-.15.52-.24.67-.08L25,9.67h0a.49.49,0,0,1,.07.67h0a.49.49,0,0,1-.66.08L21.79,8.2h0a.43.43,0,0,1-.08-.67Z"/></clipPath><clipPath id="clip-path-22"><path class="cls-3" d="M24.6,10.7h0a.65.65,0,0,1,.6.6v6.2h0a.65.65,0,0,1-.6.6h0a.65.65,0,0,1-.6-.6V11.3h0a.53.53,0,0,1,.6-.6Z"/></clipPath><clipPath id="clip-path-23"><path class="cls-3" d="M26.2,10.7h0a.65.65,0,0,1,.6.6v6.2h0a.65.65,0,0,1-.6.6h0a.65.65,0,0,1-.6-.6V11.3h0a.58.58,0,0,1,.6-.6Z"/></clipPath><clipPath id="clip-path-24"><path class="cls-6" d="M26,7.32h0a.45.45,0,0,1,.67.07L28.93,10h0a.45.45,0,0,1-.07.67h0a.45.45,0,0,1-.67-.08L26,8h0A.61.61,0,0,1,26,7.32Z"/></clipPath><clipPath id="clip-path-25"><path class="cls-3" d="M24,6.8h2.8a.43.43,0,0,1,.4.4h0L27,11.9h0a.43.43,0,0,1-.4.4H24.2a.43.43,0,0,1-.4-.4l-.2-4.7h0c-.1-.2.1-.4.4-.4Z"/></clipPath><clipPath id="clip-path-26"><path class="cls-3" d="M25.5,6.3A1.3,1.3,0,1,0,24.2,5a1.32,1.32,0,0,0,1.3,1.3Z"/></clipPath><clipPath id="clip-path-27"><rect class="cls-1" x="20.3" y="3.8" width="0.7" height="14.4"/></clipPath></defs><title>Plan de travail 1</title><g id="rooms"><path class="cls-7" d="M2.2.2H38.5a1.32,1.32,0,0,1,1.3,1.3V20.3a1.32,1.32,0,0,1-1.3,1.3H2.3A1.32,1.32,0,0,1,1,20.3V1.5A1.24,1.24,0,0,1,2.2.2Z"/><g class="cls-8"><rect class="cls-9" x="9.44" y="6.44" width="8.5" height="5.1" transform="translate(0.56 18.78) rotate(-70.01)"/></g><g class="cls-10"><rect class="cls-9" x="12.3" y="10.9" width="5.3" height="9.2"/></g><g class="cls-11"><rect class="cls-9" x="13.9" y="10.9" width="5.3" height="9.2"/></g><g class="cls-12"><rect class="cls-9" x="15.3" y="4.72" width="5.1" height="8.5" transform="translate(-1.99 6.64) rotate(-19.99)"/></g><g class="cls-13"><rect class="cls-9" x="11.9" y="4.7" width="7.7" height="7.8"/></g><g class="cls-14"><rect class="cls-9" x="11.5" y="7.7" width="8.5" height="7.8"/></g><g class="cls-15"><rect class="cls-9" x="12.5" y="1.7" width="6.7" height="6.7"/></g><g class="cls-16"><rect class="cls-9" x="19.13" y="6.39" width="8.5" height="5.1" transform="translate(6.99 27.86) rotate(-70.01)"/></g><g class="cls-17"><rect class="cls-9" x="21.9" y="8.6" width="5.3" height="11.5"/></g><g class="cls-18"><rect class="cls-9" x="23.5" y="8.6" width="5.3" height="11.5"/></g><g class="cls-19"><rect class="cls-9" x="24.9" y="4.74" width="5.1" height="8.5" transform="translate(-1.42 9.92) rotate(-19.99)"/></g><g class="cls-20"><rect class="cls-9" x="21.5" y="4.7" width="7.8" height="9.7"/></g><g class="cls-21"><rect class="cls-9" x="22.1" y="1.7" width="6.7" height="6.7"/></g><g class="cls-22"><rect class="cls-9" x="18.2" y="1.7" width="4.8" height="18.6"/></g></g></svg>