<?xml version="1.0" encoding="iso-8859-1"?>
<!-- Generator: Adobe Illustrator 19.0.0, SVG Export Plug-In . SVG Version: 6.00 Build 0)  -->
<svg version="1.1" id="Capa_1" xmlns="http://www.w3.org/2000/svg" xmlns:xlink="http://www.w3.org/1999/xlink" x="0px" y="0px"
	 viewBox="0 0 512 512" style="enable-background:new 0 0 512 512;" xml:space="preserve">
<g>
	<g>
		<path d="M512,371v-30c-25.099,0-37.02-7.315-50.823-15.785C445.735,315.74,428.233,305,394.665,305
			c-33.569,0-51.071,10.74-66.514,20.215C314.349,333.685,302.428,341,277.33,341c-25.097,0-37.018-7.315-50.819-15.785
			c-9.808-6.019-20.453-12.542-35.511-16.505v-56.729L240.611,207H26.055l49.612,44.98V482H0v30h512v-30h-27.667V368.108
			C492.226,369.904,501.293,371,512,371z M249.667,448h-30v-42.667h30V448z M310.111,448h-30v-42.667h30V448z M370.556,448h-30
			v-42.667h30V448z M431,448h-30v-42.667h30V448z"/>
	</g>
</g>
<g>
	<g>
		<polygon points="191,97.356 191,34 148.333,34 148.333,0 118.333,0 118.333,34 75.667,34 75.667,97.356 0,97.356 0,127.356 
			22.333,127.356 22.333,177 244.333,177 244.333,127.356 266.667,127.356 266.667,97.356 		"/>
	</g>
</g>
<g>
	<g>
		<polygon points="423.913,188.041 417.154,201.578 384.689,201.578 401.524,166.489 374.475,153.512 351.414,201.578 
			309.332,201.578 309.332,231.578 435.706,231.578 450.753,201.441 		"/>
	</g>
</g>
<g>
</g>
<g>
</g>
<g>
</g>
<g>
</g>
<g>
</g>
<g>
</g>
<g>
</g>
<g>
</g>
<g>
</g>
<g>
</g>
<g>
</g>
<g>
</g>
<g>
</g>
<g>
</g>
<g>
</g>
</svg>
