<svg height="511pt" viewBox="0 0 511 511.99893" width="511pt" xmlns="http://www.w3.org/2000/svg"><path d="m470.753906 116.003906h23.292969c5.523437 0 10-4.476562 10-10 0-5.519531-4.476563-9.996094-10-9.996094h-43.65625c-5.519531 0-9.996094 4.476563-9.996094 9.996094v43.660156c0 5.519532 4.476563 9.996094 9.996094 9.996094 5.523437 0 10-4.476562 10-9.996094v-12.40625c52.929687 91.035157 38.859375 209.574219-37.117187 285.550782-67.003907 67.003906-167.109376 87.441406-255.023438 52.070312-5.121094-2.058594-10.945312.421875-13.007812 5.546875-2.0625 5.121094.421874 10.945313 5.542968 13.003907 31.058594 12.496093 63.515625 18.570312 95.679688 18.570312 66.597656 0 131.941406-26.042969 180.949218-75.054688 43.761719-43.761718 70.175782-101.832031 74.371094-163.507812 3.792969-55.785156-10.722656-111.089844-41.03125-157.433594zm0 0"/><path d="m134.054688 457.761719-.390626-.238281c-4.714843-2.875-10.867187-1.378907-13.738281 3.335937-2.871093 4.71875-1.375 10.867187 3.339844 13.742187l.390625.234376c1.621094.992187 3.417969 1.460937 5.1875 1.460937 3.375 0 6.667969-1.707031 8.550781-4.796875 2.871094-4.71875 1.375-10.867188-3.339843-13.738281zm0 0"/><path d="m89.601562 89.132812c67.464844-67.464843 168.109376-87.683593 256.398438-51.515624 5.109375 2.09375 10.945312-.355469 13.042969-5.460938 2.09375-5.109375-.355469-10.949219-5.464844-13.042969-46.121094-18.894531-96.460937-23.902343-145.574219-14.480469-50.332031 9.652344-96.164062 33.984376-132.542968 70.359376-43.761719 43.765624-70.175782 101.832031-74.371094 163.511718-3.828125 56.320313 11.007812 112.148438 41.914062 158.765625h-23.757812c-5.523438 0-10 4.476563-10 9.996094 0 5.523437 4.476562 10 10 10h44.570312c5.519532 0 9.996094-4.476563 9.996094-10v-44.570313c0-5.523437-4.476562-10-9.996094-10-5.519531 0-9.996094 4.476563-9.996094 10v14.226563c-54.484374-91.324219-40.824218-211.1875 35.78125-287.789063zm0 0"/><path d="m379.980469 54.890625.496093.304687c1.636719 1.015626 3.453126 1.496094 5.246094 1.496094 3.351563 0 6.625-1.683594 8.515625-4.738281 2.902344-4.699219 1.449219-10.859375-3.246093-13.761719l-.496094-.308594c-4.695313-2.902343-10.855469-1.449218-13.761719 3.246094-2.902344 4.695313-1.449219 10.859375 3.246094 13.761719zm0 0"/><path d="m161.53125 325.566406 17.527344-28.078125h51.652344l-6.277344 19.96875h-11.984375c-5.523438 0-10 4.476563-10 9.996094s4.476562 9.996094 10 9.996094h5.695312l-6.285156 19.996093h-12.410156c-5.519531 0-9.996094 4.476563-9.996094 10 0 5.519532 4.476563 9.996094 9.996094 9.996094h6.121093l-7.75 24.65625c-.957031 3.035156-.40625 6.347656 1.476563 8.914063 1.882813 2.566406 4.875 4.082031 8.0625 4.082031h36.898437c2.984376 0 5.8125-1.332031 7.710938-3.632812l94.121094-113.972657h33.699218c27.472657 0 53.410157-13.347656 69.375-35.710937 2.480469-3.476563 2.480469-8.140625 0-11.617188-15.964843-22.363281-41.898437-35.710937-69.375-35.710937h-33.699218l-94.121094-113.972657c-1.898438-2.300781-4.726562-3.628906-7.710938-3.628906h-36.898437c-3.1875 0-6.179687 1.515625-8.0625 4.082032-1.882813 2.566406-2.433594 5.875-1.476563 8.914062l7.75 24.65625h-6.121093c-5.519531 0-9.996094 4.476562-9.996094 9.996094 0 5.523437 4.476563 9.996094 9.996094 9.996094h12.410156l6.289063 19.996093h-5.699219c-5.523438 0-10 4.476563-10 10 0 5.519531 4.476562 9.996094 10 9.996094h11.984375l6.277344 19.964844h-51.59375l-17.59375-28.089844c-1.828126-2.917969-5.03125-4.691406-8.472657-4.691406h-40.191406c-3.234375 0-6.265625 1.5625-8.140625 4.191406s-2.367188 6.003906-1.3125 9.0625l20.984375 60.9375-20.988281 61.171875c-1.046875 3.054688-.558594 6.425781 1.320312 9.054688 1.875 2.628906 4.90625 4.1875 8.136719 4.1875h40.191406c3.449219 0 6.652344-1.777344 8.480469-4.707032zm78.015625 69.53125h-18.566406l30.691406-97.609375h68.484375zm-18.566406-278.257812h18.566406l80.609375 97.609375h-68.484375zm-73.476563 193.4375h-20.644531l17.5625-51.179688c.722656-2.105468.722656-4.394531-.003906-6.5l-17.542969-50.933594h20.640625l17.59375 28.089844c1.828125 2.917969 5.027344 4.691406 8.472656 4.691406h70.691407.058593.066407 135.390624c18.527344 0 36.140626 7.933594 48.425782 21.523438-12.285156 13.59375-29.898438 21.527344-48.425782 21.527344h-135.359374c-.046876 0-.097657 0-.144532 0h-70.773437c-3.449219 0-6.652344 1.777344-8.480469 4.703125zm0 0"/></svg>