<svg xmlns="http://www.w3.org/2000/svg" version="1.1" id="small--flight-arrival" y="8117" width="24" height="24" viewBox="-583 408.9 24 24" xml:space="preserve"><style>.hqst0{fill:#003d4e}</style><path class="hqst0" d="M-566.4 421.2l-9.1-1.6c-.8-1.5-2.3-4-2.5-4.4-.3-.6-.8-.8-.8-.8l-1.4-.3.2 4.7-2.5-.4-.1.6 7 4.2 1.8.3c-.3.2-.5.3-.5.6-.1.8 1.3 1.7 3.2 2 .3.1.6.1.8.1.1.3.4.5.7.5.4 0 .8-.3.8-.8v-.2c.1-.2.2-.4.2-.6l.1-.6 1.8.3.7-3.4-.4-.2zM-564.5 421.5h-.3l-.7 3.4 1.9.3c1.9.3 4.1-.1 4.2-.6.1-.7-2.7-2.6-5.1-3.1z"/><circle class="hqst0" cx="-563.6" cy="426.8" r=".8"/></svg>