<svg id="Solid" height="512" viewBox="0 0 64 64" width="512" xmlns="http://www.w3.org/2000/svg"><path d="m35.627 33.773-1.254-1.558a4.018 4.018 0 0 1 -4.746 0l-1.254 1.558a5.974 5.974 0 0 0 7.254 0z"/><ellipse cx="27" cy="25.5" rx="2" ry="1.5"/><ellipse cx="37" cy="25.5" rx="2" ry="1.5"/><path d="m37 41-5 11.25-5-11.25-4 8 4 1-2 3 5.262 3.161-1.262 2.839 10-6-2-3 4-1z"/><path d="m25 39.18v-2.52a13.583 13.583 0 0 0 3.6 2.48 8.167 8.167 0 0 0 3.4.86 8.167 8.167 0 0 0 3.4-.86 13.583 13.583 0 0 0 3.6-2.48v2.53a7.317 7.317 0 0 0 5.15-2.08c1.46-1.56 2.17-4 2.17-7.54a37.716 37.716 0 0 0 -.33-4.69 24.54 24.54 0 0 0 -1.458-5.935l-5.5 2.29a13.425 13.425 0 0 0 1.968 1.365v5.6c0 5.22-5.61 9.8-9 9.8s-9-4.58-9-9.8v-5.31a30.066 30.066 0 0 0 4.036-.792l-7.568-3.153a24.54 24.54 0 0 0 -1.458 5.935c-.77 6.17-.19 10.06 1.84 12.23a7.351 7.351 0 0 0 5.15 2.07z"/><path d="m37.461 5.228-.461-3.228-5 3-5-3-.461 3.228 5.461 3.414z"/><path d="m44 17-4-11-8 5-8-5-4 11 12 5z"/><path d="m23.762 51.252-3.662-.917 2.326-4.65-6.249 2.361a8 8 0 0 0 -5.177 7.483v6.471h6v-5h2v5h6.478l2.238-5.035-5.543-3.33z"/><path d="m47.827 48.046-6.249-2.361 2.326 4.65-3.666.917 1.59 2.384-13.941 8.364h17.113v-5h2v5h6v-6.471a8 8 0 0 0 -5.173-7.483z"/></svg>