<svg id="Calque_1" data-name="Calque 1" xmlns="http://www.w3.org/2000/svg" xmlns:xlink="http://www.w3.org/1999/xlink" viewBox="0 0 199.4 72.68"><defs><style>.cls-1,.cls-2,.cls-3,.cls-4,.cls-5,.cls-6,.cls-7{isolation:isolate;}.cls-2,.cls-6{font-size:26px;}.cls-2,.cls-3,.cls-4,.cls-5,.cls-6,.cls-7{fill:#1d4086;font-family:LucidaCalligraphy-Italic, Lucida Calligraphy;font-style:italic;}.cls-2{letter-spacing:0.01em;}.cls-3,.cls-7{font-size:22px;}.cls-3{letter-spacing:0.01em;}.cls-4,.cls-5{font-size:23px;}.cls-5{letter-spacing:-0.16em;}.cls-6{letter-spacing:0.01em;}.cls-8{fill:url(#Dégradé_sans_nom_92);}.cls-9{fill:#baccea;}.cls-10{fill:url(#Dégradé_sans_nom_18);}.cls-11{fill:url(#Dégradé_sans_nom_94);}.cls-12{fill:#4d55a1;}.cls-13{fill:url(#Dégradé_sans_nom_94-2);}</style><linearGradient id="Dégradé_sans_nom_92" x1="23.26" y1="80.31" x2="68.56" y2="23.48" gradientTransform="matrix(1, 0, 0, -1, -8.52, 90.02)" gradientUnits="userSpaceOnUse"><stop offset="0.1" stop-color="#dfeee2" stop-opacity="0.2"/><stop offset="0.8" stop-color="#a0bac7" stop-opacity="0.3"/><stop offset="0.97" stop-color="#098bd4"/></linearGradient><radialGradient id="Dégradé_sans_nom_18" cx="43.02" cy="35.4" r="3.68" gradientTransform="matrix(1, 0, 0, -1, 0, 103.46)" gradientUnits="userSpaceOnUse"><stop offset="0.01" stop-color="#4d55a1"/><stop offset="0.93" stop-color="#4d55a1" stop-opacity="0.7"/><stop offset="1" stop-color="#d8e7f7" stop-opacity="0.3"/><stop offset="1" stop-color="#fff" stop-opacity="0"/><stop offset="1" stop-color="#8cc6e9"/><stop offset="1" stop-color="#b5d8f1"/><stop offset="1" stop-color="#cfe3f5" stop-opacity="0.2"/></radialGradient><linearGradient id="Dégradé_sans_nom_94" x1="-711.38" y1="67.84" x2="-688.51" y2="67.84" gradientTransform="translate(-636.55 103.46) rotate(180)" gradientUnits="userSpaceOnUse"><stop offset="0" stop-color="#fff" stop-opacity="0.1"/><stop offset="0" stop-color="#17b8d2" stop-opacity="0.1"/><stop offset="0.35" stop-color="#19a5d3" stop-opacity="0.5"/><stop offset="0.61" stop-color="#3087c8" stop-opacity="0.8"/><stop offset="0.83" stop-color="#485da8" stop-opacity="0.9"/></linearGradient><linearGradient id="Dégradé_sans_nom_94-2" x1="-835" y1="67.84" x2="-812.13" y2="67.84" gradientTransform="matrix(1, 0, 0, -1, 845.93, 103.46)" xlink:href="#Dégradé_sans_nom_94"/></defs><title>fennec.interface</title><g class="cls-1"><text class="cls-2" transform="translate(79.45 33.03) scale(1.15 1)">F</text><text class="cls-3" transform="translate(102.5 33.03) scale(1.15 1)">ennec</text><text class="cls-4" transform="translate(180.33 33.03) scale(1.15 1)"> </text><text class="cls-5" transform="translate(79.45 64.23) scale(1.15 1)"> </text><text class="cls-6" transform="translate(84.76 64.23) scale(1.15 1)">A</text><text class="cls-7" transform="translate(114.05 64.23) scale(1.15 1)">irlines</text></g><circle class="cls-8" cx="34.5" cy="34.5" r="34.5"/><path class="cls-9" d="M42.79,68.41a4.07,4.07,0,0,1,.22,3.1A3,3,0,0,1,41.72,73a7,7,0,0,1-5.5.69A28.17,28.17,0,0,0,43,74.6a30.45,30.45,0,0,0,7.3-.89s-3.47,1.18-6-.67A3.48,3.48,0,0,1,43,71.51,4.48,4.48,0,0,1,42.79,68.41Z" transform="translate(-8.52 -13.44)"/><path class="cls-10" d="M43,71.07a9.62,9.62,0,0,1-4.24-5.17,10.88,10.88,0,0,1,8.49,0,8.42,8.42,0,0,1-2,3.58A7.73,7.73,0,0,1,43,71.07Z" transform="translate(-8.52 -13.44)"/><path class="cls-9" d="M49.3,53.81c-.16,1.11.79,2.06,1.67,2.92a12.18,12.18,0,0,0,3,2c.44.25,1.12.61,2,1s2.84,1.27,3,1-1.32-1-3-3a10.1,10.1,0,0,1-2-3c-.67-1.71-.33-2.61-1-3C52,51.12,49.52,52.33,49.3,53.81Z" transform="translate(-8.52 -13.44)"/><path class="cls-11" d="M56,50.61a18.28,18.28,0,0,0-4-3l.77-1.28h0c.27-.46.72-1.17.78-1.27h0q8.25-13.33,17.26-26.33a43.05,43.05,0,0,0,1.13,11.92c1.59,6.63,3.82,8.86,2.56,11.93-.74,1.8-3.57,3.38-9.24,6.53a42.11,42.11,0,0,1-5.94,2.76c-.65.25-1.25.45-1.79.63A23.37,23.37,0,0,0,56,50.61Z" transform="translate(-8.52 -13.44)"/><path class="cls-12" d="M55.59,50.87a21.45,21.45,0,0,1,1.48,1.8,41.38,41.38,0,0,1-8.52,2.27,50.26,50.26,0,0,1,3.21-7A17.54,17.54,0,0,1,55.59,50.87Z" transform="translate(-8.52 -13.44)"/><path class="cls-9" d="M36.47,53.81c.16,1.11-.79,2.06-1.67,2.92a12.56,12.56,0,0,1-3,2c-.44.25-1.12.61-2,1s-2.84,1.27-3,1,1.32-1,3-3a10.1,10.1,0,0,0,2-3c.67-1.71.33-2.61,1-3C33.8,51.12,36.25,52.33,36.47,53.81Z" transform="translate(-8.52 -13.44)"/><path class="cls-13" d="M29.8,50.61a17.82,17.82,0,0,1,4-3L33,46.33h0c-.27-.46-.72-1.17-.78-1.27h0Q24,31.73,15,18.73a43.83,43.83,0,0,1-1.13,11.92C12.27,37.28,10,39.51,11.3,42.58c.74,1.8,3.57,3.38,9.24,6.53a41.59,41.59,0,0,0,5.94,2.76c.65.25,1.25.45,1.79.63A19.74,19.74,0,0,1,29.8,50.61Z" transform="translate(-8.52 -13.44)"/><path class="cls-12" d="M30.18,50.87a19.66,19.66,0,0,0-1.48,1.8,41.21,41.21,0,0,0,8.52,2.27,51.44,51.44,0,0,0-3.21-7A17.08,17.08,0,0,0,30.18,50.87Z" transform="translate(-8.52 -13.44)"/></svg>