<?xml version="1.0" encoding="iso-8859-1"?>
<!-- Generator: Adobe Illustrator 19.0.0, SVG Export Plug-In . SVG Version: 6.00 Build 0)  -->
<svg version="1.1" id="Capa_1" xmlns="http://www.w3.org/2000/svg" xmlns:xlink="http://www.w3.org/1999/xlink" x="0px" y="0px"
	 viewBox="0 0 60.001 60.001" style="enable-background:new 0 0 60.001 60.001;" xml:space="preserve">
<g>
	<path d="M47.5,29h-1V16.858C46.5,14.18,44.32,12,41.642,12H32.5V6h1c1.654,0,3-1.346,3-3s-1.346-3-3-3h-12c-1.654,0-3,1.346-3,3
		s1.346,3,3,3h1v6H12.358C9.679,12,7.5,14.179,7.5,16.858v35.284c0,2.021,1.241,3.754,3,4.486v0.688c0,1.48,1.205,2.685,2.685,2.685
		h5.63c1.48,0,2.685-1.205,2.685-2.685V57h11v0.315c0,1.48,1.205,2.685,2.685,2.685h5.63c1.48,0,2.685-1.205,2.685-2.685v-0.688
		c1.759-0.731,3-2.465,3-4.485V39h1c2.757,0,5-2.243,5-5S50.257,29,47.5,29z M32.5,2h1c0.551,0,1,0.449,1,1s-0.449,1-1,1h-1V2z
		 M28.5,2h2v2h-2V2z M24.5,2h2v2h-2V2z M24.5,6h6v6h-6V6z M21.5,4c-0.551,0-1-0.449-1-1s0.449-1,1-1h1v2H21.5z M14.5,20
		c-0.552,0-1-0.448-1-1s0.448-1,1-1h25c0.552,0,1,0.448,1,1s-0.448,1-1,1h-0.405c0.251,0.587,0.405,1.262,0.405,2
		c0,2.243-1.318,4-3,4s-3-1.757-3-4c0-0.738,0.154-1.413,0.405-2H14.5z M38.674,51.442l-10.231-4.317l3.137-7.436l10.231,4.317
		L38.674,51.442z M47.5,37h-1v-6h1c1.654,0,3,1.346,3,3S49.154,37,47.5,37z"/>
	<path d="M39.191,45.072l-1.582,3.75l-6.546-2.762l1.582-3.75L39.191,45.072z"/>
</g>
<g>
</g>
<g>
</g>
<g>
</g>
<g>
</g>
<g>
</g>
<g>
</g>
<g>
</g>
<g>
</g>
<g>
</g>
<g>
</g>
<g>
</g>
<g>
</g>
<g>
</g>
<g>
</g>
<g>
</g>
</svg>
