<svg xmlns="http://www.w3.org/2000/svg" xmlns:xlink="http://www.w3.org/1999/xlink" version="1.1" id="Capa_1" x="0px" y="0px" width="31.326px" height="31.326px" viewBox="0 0 31.326 31.326" style="transform: rotate(180deg);fill: #3081d2;enable-background:new 0 0 31.326 31.326;" xml:space="preserve">
<g>
	<g>
		<g>
			<path d="M24.981,15.663l1.674-3.755c0.132-0.292-0.024-0.533-0.346-0.533h-1.008c-0.102,0-0.234,0.063-0.296,0.143l-2.181,2.826     c-2.014-0.301-3.973-0.775-6.164-1.053l1.638-7.369c0.056-0.253-0.112-0.461-0.371-0.461h-2.076     c-0.106,0-0.247,0.072-0.309,0.162l-5.398,7.709c-4.948-0.001-6.17,1.386-6.17,2.332c0,0.945,1.222,2.332,6.17,2.332l5.398,7.708     c0.062,0.089,0.202,0.163,0.309,0.163h2.077c0.258,0,0.426-0.208,0.37-0.462l-1.638-7.368c2.189-0.279,4.15-0.752,6.164-1.055     l2.181,2.826c0.063,0.08,0.194,0.145,0.296,0.144h1.008c0.32,0,0.478-0.239,0.346-0.533L24.981,15.663z M6.545,16.988     c-0.556-0.145-0.971-0.682-0.97-1.325c-0.001-0.646,0.415-1.182,0.971-1.324c-0.183,0.4-0.287,0.849-0.287,1.324     S6.363,16.587,6.545,16.988z"/>
		</g>
		<g>
			<path d="M15.663,0C7.012,0,0.001,7.013,0.001,15.663c0,8.649,7.012,15.663,15.662,15.663s15.662-7.014,15.662-15.663     C31.325,7.013,24.313,0,15.663,0z M15.663,28.326c-6.982,0-12.662-5.68-12.662-12.663C3.001,8.68,8.68,3,15.663,3     c6.982,0,12.662,5.681,12.662,12.663C28.325,22.645,22.646,28.326,15.663,28.326z"/>
		</g>
	</g>
</g>
<g>
</g>
<g>
</g>
<g>
</g>
<g>
</g>
<g>
</g>
<g>
</g>
<g>
</g>
<g>
</g>
<g>
</g>
<g>
</g>
<g>
</g>
<g>
</g>
<g>
</g>
<g>
</g>
<g>
</g>
</svg>